<svg width="160" height="71" viewBox="0 0 160 71" fill="none" xmlns="http://www.w3.org/2000/svg">
<path d="M88.8629 71.0012C73.2429 71.0012 60.4628 66.9187 54.9603 60.1737C50.5228 63.3687 45.9078 65.6762 42.1803 65.8537C38.2753 66.0312 35.0803 64.0787 33.1278 60.5287C29.4003 53.6062 30.4653 40.1162 41.1153 25.3836C42.8903 23.0761 57.9778 3.0186 67.0303 6.0361C70.7579 7.2786 72.7104 11.8936 72.7104 20.7686H70.9354C70.9354 13.6686 69.3379 8.52111 66.4978 7.63361C60.9953 5.85861 50.1678 16.1536 42.5353 26.4486C32.2403 40.4712 31.1753 53.0737 34.7253 59.6412C36.3228 62.6587 38.9853 64.2562 42.1803 64.0787C45.5528 63.9012 49.8128 61.5937 53.8953 58.5762C53.1853 57.5112 52.8303 56.6237 52.4753 55.3812C50.3453 48.2812 55.4928 40.4712 66.8529 34.2587C79.8104 27.1586 93.3004 22.8986 103.24 22.3661C104.128 20.9461 104.838 19.7036 105.725 18.4611C115.843 2.1311 116.375 1.5986 117.44 2.3086C118.505 2.8411 118.86 3.0186 111.583 19.5261C111.05 20.5911 110.695 21.6561 110.163 22.7211C113.535 23.2536 116.02 24.3186 117.618 26.2711C120.103 29.2886 121.168 35.3237 111.405 47.3937C100.045 61.4162 97.2054 63.3687 95.4304 62.3037C93.6554 61.2387 93.1229 57.3337 107.678 24.3186C106.613 24.3186 105.548 24.3186 104.305 24.3186C88.1529 50.2337 79.1004 63.0137 75.0179 61.4162C72.7104 60.5287 71.2904 59.2862 70.7579 57.8662C70.0479 55.9137 70.9354 53.7837 72.0004 51.6537C72.7104 50.0562 73.5979 48.2812 73.4204 46.8612C73.4204 46.6837 73.4204 46.6837 73.4204 46.6837C72.3554 46.6837 68.0954 50.2337 64.5453 52.8962C62.0603 54.8487 59.3978 57.1562 56.5578 59.1087C62.2378 65.8537 76.9704 70.8237 98.2704 68.6937C137.853 64.7887 157.91 29.4661 158.088 29.1111L159.686 29.9986C159.508 30.3536 138.918 66.5637 98.4479 70.4687C95.0754 70.8237 91.8804 71.0012 88.8629 71.0012ZM109.453 23.9636C96.4954 53.2512 95.6079 59.9962 96.3179 59.9962C97.2054 59.9962 100.223 57.8662 109.985 45.7962C117.085 37.0987 119.038 30.5311 116.198 26.9811C114.955 25.3836 112.47 24.4961 109.453 23.9636ZM73.4204 44.9087C73.5979 44.9087 73.9529 44.9087 74.1304 45.0862C74.4854 45.2637 75.0179 45.6187 75.1954 46.6837C75.3729 48.6362 74.4854 50.5887 73.5979 52.3637C72.7104 54.1387 72.0004 55.7362 72.5329 57.1562C72.8879 58.0437 73.9529 58.9312 75.9054 59.6412C79.2779 60.8837 93.3004 39.0512 102.353 24.3186C92.7679 25.2061 80.1654 29.2886 67.9179 36.0337C57.2678 41.8912 52.2978 48.8137 54.2503 55.0262C54.6053 55.9137 54.9603 56.8012 55.4928 57.6887C58.3328 55.7362 60.9953 53.4287 63.4803 51.4762C68.6278 47.2162 71.4679 44.9087 73.4204 44.9087ZM105.903 22.5436C106.79 22.5436 107.678 22.5436 108.388 22.7211C108.92 21.4786 109.453 20.4136 109.985 19.1711C112.47 13.4911 114.068 9.76361 115.133 7.45611C113.18 10.4736 110.163 15.2661 107.323 19.8811C106.79 20.9461 106.08 21.8336 105.548 22.7211C105.548 22.5436 105.725 22.5436 105.903 22.5436Z" fill="black"/>
<path d="M11.8277 69.5801C8.10017 69.5801 4.55016 67.8051 1.71016 64.6101C-0.0648452 62.6576 -0.419845 60.3501 0.467656 57.8651C2.77516 51.1201 15.3777 42.9551 32.4177 35.8551C35.0802 24.6725 35.6127 16.1525 32.9502 0.354999L34.7252 0C37.3877 15.62 36.8552 24.3175 34.5477 34.9676C49.2802 28.9325 66.8528 23.785 84.0703 20.945L84.4253 22.72C66.8528 25.56 48.7477 30.885 34.1927 36.9201C33.3052 40.6476 32.0627 44.7301 30.8202 49.5226C27.8027 60.5276 21.9452 67.6276 15.0227 69.2251C13.7802 69.5801 12.7152 69.5801 11.8277 69.5801ZM31.7077 37.8076C15.7327 44.5526 4.19516 52.1851 2.06516 58.3976C1.35516 60.3501 1.71016 61.9476 2.95266 63.3676C6.14766 66.9176 10.0527 68.3376 14.1352 67.4501C20.3477 66.0301 25.8502 59.1076 28.5127 49.1676C29.9327 45.0851 30.9977 41.3576 31.7077 37.8076Z" fill="black"/>
</svg>
