<svg width="30" height="15" viewBox="0 0 30 15" fill="none" xmlns="http://www.w3.org/2000/svg">
<path fill-rule="evenodd" clip-rule="evenodd" d="M24.8642 10.8072V13.1993H26.4112V10.8072H24.8642ZM2.61681 13.8587H6.10778C6.27993 13.8587 6.44503 13.9188 6.56675 14.0258C6.68848 14.1328 6.75687 14.278 6.75687 14.4293C6.75687 14.5807 6.68848 14.7258 6.56675 14.8329C6.44503 14.9399 6.27993 15 6.10778 15H2.61681C2.44466 15 2.27956 14.9399 2.15783 14.8329C2.0361 14.7258 1.96771 14.5807 1.96771 14.4293C1.96771 14.278 2.0361 14.1328 2.15783 14.0258C2.27956 13.9188 2.44466 13.8587 2.61681 13.8587ZM27.3832 13.8587H23.8922C23.7201 13.8587 23.555 13.9188 23.4332 14.0258C23.3115 14.1328 23.2431 14.278 23.2431 14.4293C23.2431 14.5807 23.3115 14.7258 23.4332 14.8329C23.555 14.9399 23.7201 15 23.8922 15H27.3832C27.5553 15 27.7204 14.9399 27.8422 14.8329C27.9639 14.7258 28.0323 14.5807 28.0323 14.4293C28.0323 14.278 27.9639 14.1328 27.8422 14.0258C27.7204 13.9188 27.5553 13.8587 27.3832 13.8587ZM25.4258 7.86815L22.9505 8.16383C22.532 8.20271 22.1402 8.36305 21.8369 8.61953C21.5336 8.87601 21.3361 9.21401 21.2757 9.58015C21.2656 9.65001 21.2726 9.72096 21.2963 9.78823C21.32 9.8555 21.3598 9.91754 21.413 9.97019C21.4662 10.0228 21.5315 10.0649 21.6047 10.0935C21.6779 10.1221 21.7572 10.1366 21.8373 10.136H27.4942C27.9925 10.1352 28.4702 9.96086 28.8226 9.65106C29.1749 9.34125 29.3733 8.9213 29.3742 8.48317L29.9997 0.499754C30.0023 0.425793 29.9856 0.352295 29.9509 0.284889C29.9162 0.217482 29.8644 0.157955 29.7994 0.110866C29.7345 0.0637762 29.6582 0.0303736 29.5763 0.0132161C29.4945 -0.00394149 29.4092 -0.0043992 29.3271 0.0118783C28.9167 0.0793981 28.5435 0.265136 28.2664 0.539791C27.9893 0.814447 27.8241 1.16239 27.7969 1.52873L27.0738 6.32765C27.0344 6.71363 26.8462 7.0762 26.5404 7.35529C26.2346 7.63438 25.8295 7.81324 25.3922 7.86224L25.4258 7.86815ZM4.6078 7.86815L7.0831 8.16383C7.49554 8.20883 7.87969 8.37188 8.1763 8.62783C8.4729 8.88379 8.66548 9.21844 8.72432 9.58015C8.7344 9.65001 8.72736 9.72096 8.70368 9.78823C8.68 9.8555 8.64023 9.91754 8.58704 9.97019C8.53385 10.0228 8.46846 10.0649 8.39527 10.0935C8.32207 10.1221 8.24277 10.1366 8.16267 10.136H2.50582C2.00748 10.1352 1.52981 9.96086 1.17743 9.65106C0.825055 9.34125 0.626697 8.9213 0.625808 8.48317L0.000258205 0.499754C-0.00231666 0.425793 0.0143947 0.352295 0.0491127 0.284889C0.0838307 0.217482 0.135634 0.157955 0.200557 0.110866C0.265479 0.0637762 0.341797 0.0303736 0.423668 0.0132161C0.505539 -0.00394149 0.59079 -0.0043992 0.672892 0.0118783C1.08334 0.0793981 1.45655 0.265136 1.73363 0.539791C2.01071 0.814447 2.1759 1.16239 2.20314 1.52873L2.92622 6.32765C2.96561 6.71363 3.15381 7.0762 3.45963 7.35529C3.76545 7.63438 4.17055 7.81324 4.6078 7.86224V7.86815ZM6.98556 3.77H23.0313C23.1969 3.77077 23.3555 3.82897 23.4726 3.93194C23.5897 4.03491 23.6559 4.17434 23.6568 4.31997V5.06804C23.6559 5.21366 23.5897 5.3531 23.4726 5.45607C23.3555 5.55904 23.1969 5.61723 23.0313 5.61801H6.96875C6.80311 5.61723 6.64452 5.55904 6.52739 5.45607C6.41027 5.3531 6.34408 5.21366 6.3432 5.06804V4.31997C6.34408 4.17434 6.41027 4.03491 6.52739 3.93194C6.64452 3.82897 6.80311 3.77077 6.96875 3.77H6.98556ZM13.0393 0.020749H16.9843C17.2353 0.0193854 17.4792 0.0942603 17.6746 0.232718C17.8701 0.371176 18.0052 0.564725 18.0571 0.780652L18.6356 3.11063H11.3644L11.9429 0.780652C11.9948 0.564725 12.1299 0.371176 12.3254 0.232718C12.5209 0.0942603 12.7647 0.0193854 13.0157 0.020749H13.0393ZM11.277 15H18.723C18.9713 14.9992 19.2091 14.912 19.3844 14.7573C19.5596 14.6027 19.658 14.3933 19.658 14.175V6.27738H10.342V14.175C10.342 14.3933 10.4404 14.6027 10.6156 14.7573C10.7909 14.912 11.0287 14.9992 11.277 15ZM5.13582 10.8072V13.1993H3.58876V10.8072H5.13582Z" fill="white"/>
</svg>
