<svg width="20" height="20" viewBox="0 0 20 20" fill="none" xmlns="http://www.w3.org/2000/svg">
<path d="M17.8467 19.1314C15.6753 21.3029 10.1142 19.2625 5.42586 14.5741C0.737472 9.88576 -1.3029 4.32475 0.868559 2.15328L2.2983 0.723537C3.28533 -0.263494 4.91171 -0.237403 5.93093 0.781813L8.14547 2.99636C9.16469 4.01557 9.19078 5.64196 8.20375 6.62899L7.89666 6.93608C7.36374 7.46899 7.31161 8.32868 7.80678 8.92874C8.28441 9.50754 8.79933 10.0841 9.35764 10.6424C9.91595 11.2007 10.4925 11.7156 11.0713 12.1932C11.6713 12.6884 12.531 12.6363 13.0639 12.1033L13.371 11.7963C14.358 10.8092 15.9844 10.8353 17.0036 11.8545L19.2182 14.0691C20.2374 15.0883 20.2635 16.7147 19.2765 17.7017L17.8467 19.1314Z" fill="white"/>
</svg>
