<svg width="14" height="15" viewBox="0 0 14 15" fill="none" xmlns="http://www.w3.org/2000/svg">
<path d="M3.21933 2.77291H3.44078C3.68428 2.77291 3.88216 2.56666 3.88216 2.31112V0.461794C3.88216 0.20679 3.68377 0 3.44078 0H3.21933C2.9748 0 2.77641 0.20679 2.77641 0.461794V2.31058C2.77641 2.56666 2.9748 2.77291 3.21933 2.77291Z" fill="white"/>
<path d="M9.34169 2.77291H9.56315C9.80716 2.77291 10.0045 2.56666 10.0045 2.31112V0.461794C10.0045 0.20679 9.80716 0 9.56315 0H9.34169C9.09666 0 8.89929 0.20679 8.89929 0.461794V2.31058C8.89929 2.56666 9.09717 2.77291 9.34169 2.77291Z" fill="white"/>
<path d="M5.13248 5.11899C5.13248 5.00488 5.04225 4.91113 4.93306 4.91113H3.79451C3.6848 4.91113 3.59509 5.00488 3.59509 5.11899V6.02276C3.59509 6.13794 3.6848 6.23116 3.79451 6.23116H4.93357C5.04277 6.23116 5.13299 6.13794 5.13299 6.02276L5.13248 5.11899Z" fill="white"/>
<path d="M7.15739 5.11899C7.15739 5.00488 7.06819 4.91113 6.95849 4.91113H5.83941C5.73022 4.91113 5.64102 5.00488 5.64102 5.11899V6.02276C5.64102 6.13794 5.73022 6.23116 5.83941 6.23116H6.95849C7.06819 6.23116 7.15739 6.13794 7.15739 6.02276V5.11899Z" fill="white"/>
<path d="M7.86686 6.23116H8.98543C9.09513 6.23116 9.18382 6.13794 9.18382 6.02276V5.11899C9.18382 5.00488 9.09513 4.91113 8.98543 4.91113H7.86686C7.75716 4.91113 7.66745 5.00488 7.66745 5.11899V6.02276C7.66796 6.13794 7.75767 6.23116 7.86686 6.23116Z" fill="white"/>
<path d="M9.89424 6.23116H11.0118C11.122 6.23116 11.2112 6.13794 11.2112 6.02276V5.11899C11.2112 5.00488 11.122 4.91113 11.0118 4.91113H9.89424C9.78402 4.91113 9.69482 5.00488 9.69482 5.11899V6.02276C9.69534 6.13794 9.78453 6.23116 9.89424 6.23116Z" fill="white"/>
<path d="M3.08657 6.96763C3.08657 6.85298 2.99685 6.75977 2.88664 6.75977H1.7691C1.6594 6.75977 1.56969 6.85298 1.56969 6.96763V7.87086C1.56969 7.9855 1.6594 8.07872 1.7691 8.07872H2.88664C2.99685 8.07872 3.08657 7.9855 3.08657 7.87086V6.96763Z" fill="white"/>
<path d="M5.13248 6.96763C5.13248 6.85298 5.04225 6.75977 4.93306 6.75977H3.79451C3.6848 6.75977 3.59509 6.85298 3.59509 6.96763V7.87086C3.59509 7.9855 3.6848 8.07872 3.79451 8.07872H4.93357C5.04277 8.07872 5.13299 7.9855 5.13299 7.87086L5.13248 6.96763Z" fill="white"/>
<path d="M7.15739 6.96763C7.15739 6.85298 7.06819 6.75977 6.95849 6.75977H5.83941C5.73022 6.75977 5.64102 6.85298 5.64102 6.96763V7.87086C5.64102 7.9855 5.73022 8.07872 5.83941 8.07872H6.95849C7.06819 8.07872 7.15739 7.9855 7.15739 7.87086V6.96763Z" fill="white"/>
<path d="M7.66795 7.87086C7.66795 7.9855 7.75766 8.07872 7.86737 8.07872H8.98593C9.09563 8.07872 9.18432 7.9855 9.18432 7.87086V6.96763C9.18432 6.85298 9.09563 6.75977 8.98593 6.75977H7.86737C7.75766 6.75977 7.66795 6.85298 7.66795 6.96763V7.87086Z" fill="white"/>
<path d="M9.69537 7.87086C9.69537 7.9855 9.78457 8.07872 9.89479 8.07872H11.0123C11.1225 8.07872 11.2117 7.9855 11.2117 7.87086V6.96763C11.2117 6.85298 11.1225 6.75977 11.0123 6.75977H9.89479C9.78457 6.75977 9.69537 6.85298 9.69537 6.96763V7.87086Z" fill="white"/>
<path d="M3.08657 8.81919C3.08657 8.70401 2.99685 8.61133 2.88664 8.61133H1.7691C1.6594 8.61133 1.56969 8.70347 1.56969 8.81919V9.72242C1.56969 9.83707 1.6594 9.93028 1.7691 9.93028H2.88664C2.99685 9.93028 3.08657 9.8376 3.08657 9.72242V8.81919Z" fill="white"/>
<path d="M5.13248 8.81919C5.13248 8.70401 5.04225 8.61133 4.93306 8.61133H3.79451C3.6848 8.61133 3.59509 8.70347 3.59509 8.81919V9.72242C3.59509 9.83707 3.6848 9.93028 3.79451 9.93028H4.93357C5.04277 9.93028 5.13299 9.8376 5.13299 9.72242L5.13248 8.81919Z" fill="white"/>
<path d="M7.15739 8.81919C7.15739 8.70401 7.06819 8.61133 6.95849 8.61133H5.83941C5.73022 8.61133 5.64102 8.70347 5.64102 8.81919V9.72242C5.64102 9.83707 5.73022 9.93028 5.83941 9.93028H6.95849C7.06819 9.93028 7.15739 9.8376 7.15739 9.72242V8.81919Z" fill="white"/>
<path d="M2.88714 10.46H1.7696C1.6599 10.46 1.57019 10.5526 1.57019 10.6678V11.5711C1.57019 11.6857 1.6599 11.7789 1.7696 11.7789H2.88714C2.99736 11.7789 3.08707 11.6857 3.08707 11.5711V10.6678C3.08656 10.5532 2.99685 10.46 2.88714 10.46Z" fill="white"/>
<path d="M4.93357 10.46H3.79451C3.6848 10.46 3.59509 10.5526 3.59509 10.6678V11.5711C3.59509 11.6857 3.6848 11.7789 3.79451 11.7789H4.93357C5.04277 11.7789 5.13299 11.6857 5.13299 11.5711V10.6678C5.13248 10.5532 5.04277 10.46 4.93357 10.46Z" fill="white"/>
<path d="M6.95849 10.46H5.83941C5.73022 10.46 5.64102 10.5526 5.64102 10.6678V11.5711C5.64102 11.6857 5.73022 11.7789 5.83941 11.7789H6.95849C7.06819 11.7789 7.15739 11.6857 7.15739 11.5711V10.6678C7.15739 10.5532 7.06819 10.46 6.95849 10.46Z" fill="white"/>
<path d="M0.531087 13.3561H7.71767C7.59721 13.0936 7.50237 12.8167 7.44342 12.5247H0.796117V4.16526H11.9848V8.24694C12.2683 8.3423 12.5339 8.4757 12.7809 8.63856V1.8011C12.7809 1.49467 12.5436 1.24609 12.2509 1.24609H10.3126V2.31058C10.3126 2.74237 9.97633 3.09381 9.56315 3.09381H9.34169C8.928 3.09381 8.59171 2.74237 8.59171 2.31058V1.24663H4.18974V2.31111C4.18974 2.74291 3.85345 3.09434 3.44027 3.09434H3.21933C2.80512 3.09434 2.46832 2.74291 2.46832 2.31111V1.24663H0.531087C0.237861 1.24663 0 1.49521 0 1.80164V12.8022C0 13.1081 0.237861 13.3561 0.531087 13.3561Z" fill="white"/>
<path d="M7.80536 11.7632C7.80536 13.5482 9.1951 15.0001 10.9027 15.0001C12.6103 15.0001 14 13.5482 14 11.7632C14 9.97818 12.6103 8.52637 10.9027 8.52637C9.1951 8.52637 7.80536 9.97818 7.80536 11.7632ZM13.3643 11.7632C13.3643 13.1818 12.2601 14.3358 10.9027 14.3358C9.54523 14.3358 8.44102 13.1818 8.44102 11.7632C8.44102 10.3446 9.54523 9.19067 10.9027 9.19067C12.2601 9.19067 13.3643 10.3446 13.3643 11.7632Z" fill="white"/>
<path d="M10.7678 9.96175C10.696 10.1321 10.393 10.8312 10.393 10.8312C10.3777 10.8634 10.3397 10.8923 10.3059 10.8961C10.3059 10.8961 9.57693 10.9812 9.39802 11.0021C9.22168 11.023 9.18323 11.142 9.31652 11.2679C9.44724 11.3937 9.99011 11.9113 9.99011 11.9113C10.0163 11.9343 10.0296 11.982 10.0224 12.0163C10.0224 12.0163 9.8758 12.769 9.83991 12.9516C9.80352 13.1349 9.9004 13.2088 10.0552 13.1161C10.2116 13.0245 10.8493 12.6447 10.8493 12.6447C10.8785 12.627 10.9272 12.627 10.9564 12.6447C10.9564 12.6447 11.5941 13.0245 11.7505 13.1161C11.9053 13.2088 12.0022 13.1349 11.9658 12.9516C11.9299 12.7695 11.7833 12.0163 11.7833 12.0163C11.7761 11.982 11.79 11.9348 11.8156 11.9113C11.8156 11.9113 12.359 11.3937 12.4892 11.2679C12.6225 11.142 12.584 11.023 12.4077 11.0021C12.2288 10.9812 11.4998 10.8961 11.4998 10.8961C11.4665 10.8923 11.428 10.8634 11.4127 10.8312C11.4127 10.8312 11.1092 10.1321 11.0379 9.96175C10.9626 9.79139 10.8426 9.79139 10.7678 9.96175Z" fill="white"/>
</svg>
