<svg width="25" height="15" viewBox="0 0 25 15" fill="none" xmlns="http://www.w3.org/2000/svg">
<path d="M0 14.2275C0 14.6893 0.325573 14.9824 0.838596 14.9824H1.43055C1.93371 14.9824 2.26914 14.6893 2.26914 14.2275V12.9131C2.37767 12.9397 2.70324 12.9576 2.94002 12.9576H22.06C22.2968 12.9576 22.6224 12.9397 22.7309 12.9131V14.2275C22.7309 14.6893 23.0663 14.9824 23.5695 14.9824H24.1614C24.6744 14.9824 25 14.6893 25 14.2275V8.93446C25 7.23817 23.9542 6.30566 22.0698 6.30566H2.93015C1.04578 6.30566 0 7.23817 0 8.93446V14.2275Z" fill="white"/>
<path d="M2.36781 5.03552H4.87373V3.75665C4.87373 2.93073 5.38676 2.47779 6.32401 2.47779H10.004C10.9314 2.47779 11.4444 2.93073 11.4444 3.75665V5.03552H13.6839V3.75665C13.6839 2.93073 14.197 2.47779 15.1836 2.47779H18.6365C19.6232 2.47779 20.1362 2.93073 20.1362 3.75665V5.03552H22.6519V2.48667C22.6519 0.843692 21.6654 0 19.8895 0H5.12038C3.34453 0 2.36781 0.843692 2.36781 2.48667V5.03552Z" fill="white"/>
</svg>
