<svg width="15" height="15" viewBox="0 0 15 15" fill="none" xmlns="http://www.w3.org/2000/svg">
<g clip-path="url(#clip0_461_247)">
<path d="M4.75269 9.36157C4.68896 9.36693 4.62538 9.36969 4.56164 9.36969C4.38729 9.36969 4.21771 9.34439 4.05165 9.30595L0.209289 13.1484C0.0206912 13.3368 0.0206912 13.6427 0.209289 13.831L1.20373 14.8257C1.39233 15.014 1.69789 15.014 1.88596 14.8257L6.50397 10.2085L5.64815 9.28516L4.75269 9.36157Z" fill="white"/>
<path d="M14.8644 3.2054C14.6841 3.02516 14.3922 3.02516 14.2119 3.2054L11.7219 5.69536C11.4863 5.93073 11.1047 5.93073 10.869 5.69536C10.6345 5.46018 10.6345 5.07885 10.869 4.84373L13.3468 2.36654C13.5339 2.17917 13.5339 1.87542 13.3468 1.68762C13.1587 1.50049 12.855 1.50049 12.6679 1.68762L10.1912 4.16456C9.95555 4.40017 9.57434 4.40017 9.33873 4.16456C9.10361 3.92947 9.10361 3.54787 9.33873 3.31296L11.8282 0.823247C12.0091 0.642735 12.0091 0.350344 11.8282 0.169587C11.6479 -0.010956 11.3555 -0.010956 11.1747 0.169587L8.37369 2.97077C7.70025 3.64465 7.48752 4.59054 7.70555 5.45124L9.58325 7.32907C10.4439 7.5463 11.3902 7.33348 12.0629 6.66015L14.8644 3.85912C15.0452 3.67861 15.0452 3.38591 14.8644 3.2054Z" fill="white"/>
<path d="M1.25852 0.423075C1.16254 0.327061 1.03274 0.274414 0.899454 0.274414C0.871094 0.274414 0.842581 0.276834 0.814742 0.281489C0.652575 0.30893 0.513439 0.413029 0.441957 0.5612C-0.378525 2.25708 -0.0356318 4.28632 1.29625 5.61827L3.67902 8.00073C3.91411 8.23609 4.23198 8.36638 4.56164 8.36638C4.59689 8.36638 4.63223 8.36491 4.66749 8.362L6.05091 8.24393L12.0834 14.7517C12.1771 14.8529 12.3083 14.9116 12.4465 14.9143C12.4494 14.9143 12.4523 14.9143 12.4553 14.9143C12.5905 14.9143 12.7198 14.861 12.8158 14.7656L13.849 13.7323C13.9444 13.637 13.9978 13.5078 13.9978 13.373C13.9978 13.2383 13.9444 13.109 13.8494 13.0137L1.25852 0.423075Z" fill="white"/>
</g>
<defs>
<clipPath id="clip0_461_247">
<rect width="15" height="15" fill="white"/>
</clipPath>
</defs>
</svg>
