<svg width="783" height="329" viewBox="0 0 783 329" fill="none" xmlns="http://www.w3.org/2000/svg">
<path d="M284.49 142.93H256.38L251.64 132.77H223.7L219.12 142.93H211.01L243.69 71.0898H250.69L284.49 142.93ZM248.12 125.35L237.49 102.61L227.12 125.35H248.12Z" fill="white"/>
<path d="M354.85 128.71C354.78 133.02 353.75 136.47 351.75 139.02C350.48 140.64 348.6 141.95 346.09 142.95C343.58 143.95 340.9 144.45 338.06 144.45C333.5 144.45 329.65 143.21 326.53 140.72C323.41 138.23 320.2 133.86 316.9 127.62C316.69 127.62 316.14 127.64 315.27 127.67C314.46 127.74 313.92 127.78 313.64 127.78V142.94H288.27V71.0898H318.96C324.72 71.0898 329.43 71.4498 333.12 72.1998C336.8 72.9298 340.06 74.1798 342.9 75.9398C350.97 80.8799 355.01 87.8198 355.01 96.7198C355.01 103.21 352.88 108.69 348.64 113.17C344.4 117.64 337.76 121.38 328.75 124.4C330.5 126.68 332.75 128.51 335.48 129.87C338.21 131.24 341.01 131.92 343.84 131.92C347.15 131.93 350.82 130.86 354.85 128.71ZM313.64 120.24C314.09 120.24 314.46 120.24 314.74 120.24C316.64 120.24 318.46 119.89 320.22 119.18C321.97 118.48 323.38 117.55 324.43 116.39C325.74 114.92 326.63 112.92 327.11 110.42C327.6 107.91 327.85 103.98 327.85 98.6098C327.85 93.9798 327.68 90.5998 327.35 88.4799C327.01 86.3599 326.38 84.5898 325.43 83.1898C323.25 80.0299 319.78 78.4498 315.01 78.4498C314.75 78.4498 314.31 78.4698 313.64 78.4998V120.24Z" fill="white"/>
<path d="M429.431 142.93H401.331L396.591 132.77H368.641L364.061 142.93H355.961L388.641 71.0898H395.641L429.431 142.93ZM393.061 125.35L382.431 102.61L372.061 125.35H393.061Z" fill="white"/>
<path d="M490.961 138.55C485.341 142.48 477.461 144.44 467.331 144.44C455.361 144.44 445.661 141.3 438.221 135.02C429.941 128.04 425.791 118.66 425.791 106.86C425.791 97.99 428.041 90.38 432.531 84.03C439.341 74.34 449.801 69.5 463.901 69.5C469.651 69.5 474.451 70.19 478.271 71.58C482.101 72.97 485.651 75.31 488.961 78.61C487.131 81.41 484.231 83.03 480.271 83.44C479.041 80.93 477.701 79.18 476.251 78.24C474.791 77.29 472.741 76.81 470.111 76.81C463.971 76.81 459.231 79.23 455.901 84.08C454.741 85.72 453.961 87.98 453.561 90.84C453.151 93.69 452.961 98.3 452.961 104.65C452.961 113.67 453.171 120.05 453.611 123.81C454.051 127.56 454.881 130.36 456.111 132.17C457.131 133.68 458.321 134.79 459.711 135.49C461.101 136.19 463.051 136.69 465.571 136.96V91.03H490.941V138.55" fill="white"/>
<path d="M533.11 69.5596C542.89 69.5596 551.18 73.2296 557.95 80.5596C564.51 87.6796 567.79 96.8196 567.79 107.98C567.79 113.59 566.58 119.04 564.15 124.35C560.99 131.34 556.05 136.68 549.31 140.4C544.36 143.1 538.96 144.45 533.1 144.45C527.24 144.45 521.83 143.1 516.88 140.4C510.32 136.86 505.35 131.59 501.99 124.61C499.18 118.82 497.77 112.77 497.77 106.45C497.77 95.5396 501.48 86.4696 508.89 79.2396C515.39 72.8896 523.46 69.6596 533.11 69.5596ZM540.63 105.66V96.5596C540.63 88.3196 540.18 83.1396 539.27 81.0296C538.07 78.2596 535.93 76.8696 532.84 76.8696C529.48 76.8696 527.18 78.3296 525.95 81.2396C525.53 82.2196 525.28 83.3596 525.18 84.6396C525.1 85.9196 525.02 89.7396 524.95 96.0896L524.99 105.98V116.82C525.03 122.92 525.08 126.59 525.15 127.81C525.22 129.04 525.4 130.25 525.67 131.44C526.06 133.17 526.9 134.54 528.19 135.58C529.49 136.61 531.01 137.13 532.77 137.13C535.12 137.13 536.9 136.44 538.11 135.06C539.32 133.67 540.06 131.45 540.35 128.4C540.48 127.42 540.57 119.84 540.63 105.66Z" fill="white"/>
<path d="M626.741 79.3493C624.911 82.0493 622.071 83.9993 618.211 85.1893C616.141 82.1693 613.931 80.0293 611.551 78.7693C609.181 77.4993 606.211 76.8693 602.631 76.8693C600.121 76.8693 598.161 77.2893 596.791 78.1293C595.221 79.0793 594.431 80.3093 594.431 81.8093C594.431 83.4593 595.481 84.7693 597.581 85.7593C598.361 86.1493 600.951 86.9193 605.371 88.0693C611.241 89.6493 615.871 91.1293 619.261 92.5193C622.671 93.9093 625.321 95.4293 627.221 97.0693C632.941 101.989 635.791 108.559 635.791 116.809C635.791 125.299 633.001 131.969 627.431 136.799C624.371 139.429 620.941 141.359 617.121 142.589C613.291 143.819 608.761 144.429 603.531 144.429C594.091 144.429 586.501 142.379 580.751 138.269C575.001 134.199 572.121 129.229 572.121 123.379C572.121 118.779 574.141 114.499 578.171 110.539C580.001 111.059 582.001 111.949 584.201 113.189C586.391 114.429 588.401 115.849 590.221 117.429C587.631 118.899 585.871 120.159 584.961 121.199C584.051 122.229 583.591 123.519 583.591 125.069C583.591 128.329 585.271 131.149 588.641 133.529C592.081 135.919 596.601 137.109 602.171 137.109C607.921 137.109 612.471 136.159 615.801 134.269C617.281 133.429 618.481 132.279 619.411 130.819C620.341 129.369 620.801 127.899 620.801 126.429C620.801 123.129 619.031 120.419 615.491 118.319C613.561 117.159 609.571 115.719 603.541 113.999C597.331 112.209 592.921 110.779 590.311 109.709C587.701 108.639 585.391 107.299 583.391 105.679C578.131 101.469 575.491 96.1693 575.491 89.7893C575.491 82.6293 578.061 77.3693 583.181 73.9993C587.741 71.0193 593.921 69.5293 601.711 69.5293C607.781 69.5293 612.961 70.3693 617.261 72.0493C621.531 73.7693 624.701 76.1893 626.741 79.3493Z" fill="white"/>
<path d="M680.11 142.93H654.74V78.2898H634.91V71.0898H699.95V78.2898H680.11V142.93Z" fill="white"/>
<path d="M765.29 142.93H737.2L732.45 132.77H704.51L699.94 142.93H691.83L724.51 71.0898H731.51L765.29 142.93ZM728.93 125.35L718.3 102.61L707.94 125.35H728.93Z" fill="white"/>
<path d="M267.16 222.68C242.34 218.45 197.25 209.53 168.22 196.31C163.93 194.35 159.4 192.19 154.74 189.9C154.1 187.53 153.5 185.82 153.5 185.82L152.63 157.06C152.63 157.06 150.88 154.88 150.88 147.91C150.88 140.94 153.06 137.89 154.8 137.01C156.55 136.15 156.98 131.79 156.98 131.79C156.98 131.79 161.34 136.15 164.82 136.15C165.76 136.15 168.11 139.31 171.03 143.95C165.09 149.8 160.22 155.14 159.59 157.5C157.85 164.04 160.9 164.48 173.54 164.48C174.77 164.48 175.81 164.36 176.78 164.18C176.58 167.61 176.44 171.36 176.44 174.58C176.43 177.69 176.59 180.38 176.89 181.65L176.98 181.98C178.09 181.64 181.16 179.99 184.08 177.56C185.35 176.53 186.65 175.36 187.89 174.1C189.95 178.11 191.31 180.96 191.41 181.47C191.85 183.66 191.85 193.67 193.15 196.29C194.46 198.91 199.26 192.8 196.65 185.39C195.83 183.07 193.31 177.73 190.23 171.48C191.46 169.97 192.53 168.39 193.34 166.78C197.71 158.22 202.86 146.35 208.51 143.7C211.88 142.11 213.86 140.8 213.96 134.92C213.96 132.66 213.6 129.74 212.77 126.01C209.67 112.12 206.72 93.3997 186.47 89.6097C165.53 85.6697 147.89 85.9697 130.08 83.5097L129.9 83.4897L129.75 83.4097L127.42 82.2397C125.86 81.8097 102.9 75.4897 96.3001 73.0997C90.5301 70.9797 80.9101 68.8597 78.6401 68.3597C78.0601 68.8497 76.8101 69.9697 76.9401 70.7397C76.9201 71.2697 77.3601 72.3497 80.5601 73.5097L80.9001 73.6297L81.1001 73.9197C81.1901 74.0797 81.8501 75.1497 81.8501 77.2197C81.8501 78.6397 81.5401 80.5097 80.5901 82.8597C79.0201 86.9297 77.2701 89.7697 73.1001 89.6997C71.7601 89.6997 70.2201 89.4497 68.3401 88.9897C64.5101 88.0197 56.8701 84.8497 49.9101 80.6997C42.9901 76.5097 36.6401 71.5697 35.8201 66.1197C35.2201 61.4097 34.1701 59.3197 34.1301 57.1497C34.1401 54.9297 35.5301 53.4197 38.6801 51.0897C45.5301 45.9997 84.0601 28.3897 130.01 18.5597C165.64 10.9597 213.72 3.11973 243.5 0.479727C242.51 0.469727 241.49 0.469727 240.44 0.469727C217.4 0.469727 182.45 2.31973 146.31 10.2897C74.4701 26.0897 37.1201 42.1197 30.9001 47.8697C27.3801 51.0697 21.8201 56.3797 21.8301 64.4997C21.8201 71.8097 26.3501 81.8497 41.8901 95.0897L47.6801 100.37L46.3601 101.09C46.3701 101.11 42.8801 103 39.4101 106.21C35.9101 109.43 32.5701 113.88 32.5801 118.75C32.5901 120.22 32.8901 121.77 33.5901 123.38C31.5101 123.73 29.9401 123.95 29.3101 123.95C26.2601 123.95 26.2601 120.9 23.2001 124.82C20.1501 128.75 15.3101 140.51 13.6201 141.82C11.9301 143.13 9.70011 144.44 5.77011 150.53C1.85011 156.64 -3.36989 175.37 7.08011 181.04C7.08011 181.04 6.26011 173.19 7.96011 165.79C9.64011 158.38 10.1401 154.02 12.7501 152.28C15.3701 150.53 22.7701 137.46 24.0801 134.41C25.3801 131.35 30.1801 127.86 34.5301 127.86H36.5401C37.6301 129.09 38.9501 130.35 40.5901 131.64C40.8701 131.86 41.2001 132.1 41.5001 132.33C40.6001 134.67 39.4801 137.63 38.4501 140.5C36.2701 146.61 31.9101 155.75 32.3401 159.24C32.7701 162.72 36.7001 174.49 40.1801 177.11C43.6701 179.73 44.9801 179.73 44.9801 179.73C44.9801 179.73 40.1801 169.28 39.7501 165.35C39.3201 161.42 39.3201 159.24 39.3201 155.76C39.3201 152.27 41.9301 144.43 43.6701 140.95C44.3901 139.51 45.4301 137.85 46.8701 136.24C48.3901 137.3 50.0101 138.42 51.7401 139.57C50.8601 140.61 50.3101 141.54 50.2101 142.25C49.9201 144.27 52.1101 143.42 55.0101 141.74C56.0501 142.42 57.1201 143.12 58.2101 143.82C56.0101 146.1 54.4301 148.45 54.2401 150.52C53.8501 154.55 54.2401 157.06 54.2401 157.06C54.2401 157.06 54.1301 152.27 58.4901 149.21C59.7601 148.33 60.8301 147.25 61.8501 146.15C63.9201 147.46 66.0601 148.81 68.2601 150.17C65.2001 154.77 63.2801 159.24 63.2801 159.24C63.2801 159.24 56.6401 172.32 55.4301 175.36C54.2301 178.41 50.2101 191.05 50.2101 193.44C50.2101 195.85 54.1301 207.62 57.1801 209.35C60.2201 211.09 58.4901 201.94 58.4901 201.94L56.7401 196.72C56.7401 196.72 60.2301 180.59 63.7201 173.61C66.6601 167.73 72.6801 157.16 74.5001 153.98C76.3001 155.07 78.1101 156.17 79.9501 157.27C77.2801 163.06 74.1801 170.14 74.1801 171.88C74.1801 174.93 68.5101 199.33 68.5101 201.07C68.5101 202.81 69.3801 218.94 77.2301 222.43C85.0701 225.91 75.4801 214.58 75.4801 209.35C75.4801 204.12 75.9101 191.92 78.9701 184.94C82.0201 177.97 84.2001 176.23 84.2001 172.31C84.2001 168.39 85.9401 163.16 87.6801 161.85C94.3401 165.77 101.1 169.64 107.64 173.3C107.58 186.12 107.59 204.14 108.16 205.86C109.02 208.48 121.23 218.07 121.23 218.07C121.23 218.07 115.57 207.62 114.69 203.69C114.11 201.1 113.34 186.09 112.89 176.24C128.28 184.74 141.77 191.67 148.71 194.4C150.46 199.16 153.25 203.5 157.39 205.87C157.39 205.87 156.52 202.39 156.08 197.16L156.06 196.94C178.03 204.02 227.6 217.72 236.02 219.91C240.99 221.22 255.25 222.13 267.16 222.68ZM199.39 143.1C198.36 143.29 192.43 145.68 187 148.3C189.26 143.95 192.14 138.66 193.14 137.9C194.32 137.02 197.85 135.75 200.04 135.01C200.68 136.98 201.05 138.78 201.07 140.14C201.07 141.3 200.88 142.67 199.39 143.1ZM167.64 118.76L167.84 118.11L168.51 118.01C168.55 118 171.51 117.56 175.48 117.56C180.92 117.58 188.27 118.31 192.62 122.58C192.89 122.86 193.14 123.17 193.4 123.46C189.82 126.58 181.82 133.62 174.49 140.62C174.16 139.99 173.98 139.64 173.98 139.64L170.49 134.42V130.93L168.32 128.31L164.46 124.46C165.12 123.63 165.7 122.8 166.14 122.04C167.22 120.17 167.64 118.78 167.64 118.76ZM57.6801 134.57C56.7801 133.54 55.8201 132.28 54.8701 130.87C55.2101 130.75 55.5201 130.6 55.8801 130.49C62.8501 128.31 72.8701 125.27 72.8701 125.27L81.6701 124.01C82.3801 124.46 83.1101 124.91 83.8501 125.36C81.8901 125.58 77.4801 126.3 69.8301 128.76C65.1601 130.25 60.9801 132.38 57.6801 134.57ZM49.8001 118.19C49.7801 116.28 50.4501 114.4 52.1501 113.3C55.0501 111.39 56.8801 109.93 59.3801 109.9C61.5401 109.92 63.6301 111.03 66.8001 113.32C68.4101 114.51 71.0801 116.62 74.4801 119.09L71.1301 119.16L57.6301 118.73C57.6301 118.73 54.3701 119.41 50.0401 120.27C49.9101 119.56 49.8101 118.86 49.8001 118.19ZM61.4601 137.78C65.8901 135.26 70.7001 133.55 70.7001 133.55C70.7001 133.55 76.8101 130.93 78.9801 130.93C80.7801 130.93 89.5301 130.33 92.5101 130.13C93.5001 130.61 94.5001 131.05 95.5101 131.49C92.1801 131.95 80.4101 133.55 78.5401 133.55C76.3601 133.55 70.7001 134.42 65.4601 137.9C64.8401 138.31 64.2201 138.76 63.5901 139.21C62.8101 138.69 62.0801 138.21 61.4601 137.78ZM66.7301 141.21C67.6601 140.51 68.6601 139.96 69.8301 139.64C74.6201 138.33 78.5401 136.59 82.0301 136.59H90.7501C92.7601 136.59 98.6001 133.97 98.6001 133.97L101.27 133.66C103.69 134.45 106.14 135.08 108.61 135.5C108.18 135.68 107.04 136 104.26 136.59C98.1601 137.89 92.4901 138.77 90.3101 138.77C88.1301 138.77 82.4601 137.46 75.4901 142.25C74.4701 142.96 73.4801 143.83 72.5401 144.8C70.3901 143.5 68.4401 142.29 66.7301 141.21ZM79.7301 149.12L81.1501 147.92C81.1501 147.92 103.82 143.57 107.3 142.7C110.79 141.83 111.65 140.08 112.52 136.6L112.77 135.99C113.56 136.04 114.34 136.11 115.13 136.11C116.54 136.11 117.95 136 119.36 135.81C119.08 137.27 118.29 139.25 116.01 140.51C112.09 142.69 97.0501 148.79 93.8901 148.79C90.7301 148.79 83.7601 149.22 83.7601 149.22C83.7601 149.22 83.4301 149.89 82.9001 150.99C81.8301 150.36 80.7601 149.73 79.7301 149.12ZM94.5501 157.73C98.2701 155.58 102.07 153.43 102.07 153.43C102.07 153.43 114.27 147.05 120.38 146.62C120.38 146.62 126.49 146.19 128.22 143.13C129.68 140.58 130.83 135.63 131.17 134.05C132.21 133.9 133.22 133.75 134.21 133.61C134.42 136.77 134.54 141.26 133.56 141.82C132.03 142.69 113.41 152.93 110.8 154.56C108.18 156.2 107.74 158.38 107.74 160.56C107.74 160.96 107.73 162.65 107.71 165.14C103.15 162.61 98.7501 160.12 94.5501 157.73ZM112.54 167.82L112.53 167.54L113.84 163.61C113.84 163.61 129.53 151.41 132.79 149.67C136.06 147.92 139.55 150.54 138.24 160.12C136.93 169.71 136.06 169.28 136.06 169.28V171.45C136.06 171.45 142.6 167.09 143.03 164.91C143.46 162.73 142.59 154.55 142.59 154.55L143.46 151.83C143.46 151.83 147.38 170.13 146.52 177.98C146.27 180.19 146.32 182.95 146.69 185.89C135.44 180.21 123.68 173.95 112.54 167.82Z" fill="white"/>
<path d="M271.47 221.249C271.47 221.249 286.14 223.639 287.46 223.729C288.79 223.819 290.47 224.26 288.35 224.88C286.23 225.5 275.36 227.88 263.88 226.74C252.4 225.59 236.76 222.769 235.79 221.609C234.82 220.469 242.33 219.229 242.33 219.229L261.06 221.259H271.47" fill="white"/>
<path d="M242.339 223.28C242.339 223.28 168.029 206.31 156.899 199.25C145.769 192.18 200.519 208.28 200.519 208.28L245.089 220.84L242.339 223.28Z" fill="white"/>
<path d="M240.68 223.28C240.68 223.28 170.85 208.96 156.36 199.25C141.87 189.53 212.09 211.96 212.09 211.96L241.17 221.33L240.68 223.28Z" fill="white"/>
<path d="M770.72 75.55H773.61C774.3 75.55 774.79 75.7 775.11 75.97C775.42 76.25 775.58 76.6 775.58 77.03C775.58 77.33 775.49 77.6 775.33 77.86C775.17 78.11 774.93 78.29 774.62 78.41C774.3 78.53 773.87 78.58 773.32 78.58H770.71V75.55M770.72 83.69V79.62H772.12C772.44 79.62 772.66 79.63 772.8 79.66L773.35 79.9C773.54 80.01 773.74 80.23 773.96 80.52C774.19 80.81 774.49 81.23 774.84 81.77L776.05 83.68H777.56L775.98 81.19C775.66 80.7 775.33 80.3 774.97 79.98C774.8 79.83 774.56 79.67 774.24 79.52C775.12 79.41 775.76 79.12 776.18 78.67C776.6 78.23 776.82 77.68 776.82 77.04C776.82 76.54 776.69 76.08 776.44 75.66C776.18 75.25 775.85 74.95 775.42 74.79C774.99 74.63 774.38 74.54 773.56 74.54H769.51V83.68H770.72V83.69Z" fill="white"/>
<path d="M764.939 79.1098C764.939 74.3598 768.789 70.5098 773.529 70.5098C778.279 70.5098 782.129 74.3598 782.129 79.1098C782.129 83.8598 778.279 87.7098 773.529 87.7098V86.8198C777.789 86.8098 781.229 83.3698 781.239 79.1098C781.229 74.8498 777.789 71.3998 773.529 71.3998C769.279 71.3998 765.819 74.8498 765.819 79.1098C765.819 83.3698 769.279 86.8098 773.529 86.8198V87.7098C768.789 87.7098 764.939 83.8598 764.939 79.1098Z" fill="white"/>
<path d="M542.261 192.72C542.261 196.21 543.251 198.83 545.221 200.57C547.191 202.32 550.161 203.19 554.121 203.19H555.451V200.79H553.651C550.591 200.79 548.361 200.12 546.961 198.8C545.551 197.47 544.851 195.37 544.851 192.47V175.69H555.451V173.21H544.851V164.71H542.251V192.72M513.051 185.43C513.051 182.34 513.951 179.83 515.731 177.9C517.511 175.98 519.831 175.02 522.681 175.02C525.531 175.02 527.851 175.97 529.621 177.9C531.411 179.82 532.311 182.33 532.311 185.43V203.19H534.871V186.24C534.871 182.08 533.761 178.78 531.541 176.33C529.331 173.89 526.381 172.66 522.671 172.66C518.971 172.66 516.011 173.89 513.801 176.33C511.591 178.78 510.481 182.08 510.481 186.24V203.19H513.031V185.43H513.051ZM503.111 203.18V189.94C503.111 187.74 502.941 185.86 502.621 184.28C502.281 182.69 501.761 181.3 501.041 180.11C499.581 177.72 497.711 175.87 495.461 174.59C493.201 173.3 490.731 172.66 488.011 172.66C483.671 172.66 480.081 174.13 477.241 177.07C474.401 180 472.981 183.72 472.981 188.22C472.981 190.3 473.341 192.28 474.061 194.15C474.781 196.02 475.831 197.7 477.221 199.19C478.611 200.68 480.221 201.81 482.091 202.59C483.951 203.36 485.961 203.75 488.141 203.75C490.101 203.75 491.951 203.42 493.681 202.75C495.411 202.08 497.011 201.07 498.501 199.7V196.31C497.011 197.97 495.411 199.23 493.691 200.06C491.981 200.89 490.131 201.31 488.141 201.31C484.541 201.31 481.571 200.07 479.221 197.59C476.871 195.11 475.701 191.97 475.701 188.17C475.701 184.42 476.891 181.29 479.271 178.78C481.651 176.29 484.601 175.04 488.141 175.04C491.901 175.04 494.911 176.36 497.151 179.01C499.391 181.67 500.511 185.24 500.511 189.76V203.2H503.111V203.18ZM458.971 203.18V187.32C458.971 183.91 459.921 181.12 461.831 178.93C463.731 176.74 466.151 175.65 469.081 175.65C469.411 175.65 470.061 175.68 471.031 175.77H471.221V173.23C470.791 173.17 470.431 173.13 470.161 173.11L469.451 173.09C467.201 173.09 465.191 173.59 463.421 174.59C461.651 175.6 460.171 177.09 458.971 179.08V173.2H456.411V203.17H458.971V203.18ZM426.251 178.83C428.671 176.29 431.611 175.03 435.081 175.03C438.531 175.03 441.451 176.29 443.861 178.82C446.251 181.35 447.451 184.46 447.451 188.16C447.451 191.81 446.251 194.92 443.861 197.47C441.451 200.02 438.531 201.3 435.081 201.3C431.611 201.3 428.671 200.02 426.251 197.49C423.841 194.95 422.641 191.84 422.641 188.16C422.641 184.48 423.841 181.37 426.251 178.83ZM421.071 194.13C421.831 196.01 422.951 197.71 424.411 199.24C425.841 200.71 427.471 201.83 429.301 202.59C431.121 203.35 433.061 203.73 435.081 203.73C437.101 203.73 439.031 203.35 440.861 202.59C442.691 201.82 444.311 200.71 445.741 199.24C447.191 197.75 448.291 196.07 449.041 194.19C449.801 192.31 450.181 190.31 450.181 188.21C450.181 186.09 449.801 184.07 449.041 182.2C448.291 180.32 447.191 178.64 445.741 177.15C444.311 175.71 442.691 174.59 440.861 173.82C439.031 173.05 437.101 172.66 435.081 172.66C433.061 172.66 431.121 173.06 429.301 173.82C427.471 174.59 425.841 175.71 424.411 177.15C422.951 178.71 421.831 180.41 421.071 182.28C420.311 184.15 419.921 186.12 419.921 188.21C419.921 190.27 420.311 192.25 421.071 194.13ZM402.961 192.72C402.961 196.21 403.941 198.83 405.921 200.57C407.891 202.32 410.861 203.19 414.821 203.19H416.151V200.79H414.361C411.301 200.79 409.071 200.12 407.671 198.8C406.261 197.47 405.561 195.37 405.561 192.47V175.69H416.151V173.21H405.561V164.71H402.961V192.72ZM374.221 203.18H385.321C389.291 203.18 392.231 202.55 394.141 201.28C396.051 200.02 397.011 198.09 397.011 195.48C397.011 193.52 396.331 191.84 394.971 190.46C393.621 189.07 391.631 188.02 389.011 187.29L382.971 185.59C380.861 184.99 379.321 184.27 378.351 183.42C377.371 182.57 376.891 181.54 376.891 180.31C376.891 178.78 377.381 177.62 378.391 176.81C379.401 176 380.861 175.6 382.791 175.6H394.771V173.2H383.751C380.711 173.2 378.381 173.8 376.741 175.02C375.111 176.22 374.301 177.95 374.301 180.2C374.301 182.1 374.911 183.68 376.121 184.92C377.351 186.17 379.221 187.14 381.771 187.85L387.571 189.46C389.971 190.1 391.711 190.92 392.801 191.91C393.881 192.9 394.421 194.15 394.421 195.66C394.421 197.24 393.791 198.46 392.541 199.35C391.271 200.24 389.501 200.68 387.231 200.68H374.241V203.18H374.221ZM367.401 188.57C367.141 192.36 365.871 195.42 363.581 197.77C361.281 200.12 358.431 201.3 355.021 201.3C351.541 201.3 348.611 200.02 346.201 197.49C343.791 194.95 342.591 191.83 342.591 188.15C342.591 184.45 343.801 181.33 346.231 178.77C348.661 176.22 351.631 174.95 355.141 174.95C357.051 174.95 358.781 175.35 360.351 176.16C361.921 176.96 363.281 178.14 364.421 179.69L345.871 192.08L347.091 194.1L367.991 180.15C366.511 177.67 364.681 175.81 362.521 174.55C360.361 173.29 357.931 172.66 355.221 172.66C353.111 172.66 351.141 173.05 349.301 173.81C347.461 174.57 345.821 175.68 344.371 177.15C342.911 178.66 341.791 180.36 341.021 182.23C340.251 184.11 339.871 186.1 339.871 188.21C339.871 190.29 340.251 192.29 341.021 194.17C341.791 196.06 342.901 197.74 344.371 199.23C345.801 200.7 347.421 201.82 349.261 202.58C351.091 203.34 353.011 203.72 355.031 203.72C359.181 203.72 362.681 202.3 365.501 199.48C368.331 196.65 369.881 193 370.121 188.56H367.401V188.57ZM325.861 203.18V187.32C325.861 183.91 326.811 181.12 328.711 178.93C330.621 176.74 333.041 175.65 335.971 175.65C336.301 175.65 336.951 175.68 337.931 175.77H338.121V173.23C337.681 173.17 337.321 173.13 337.061 173.11L336.341 173.09C334.081 173.09 332.081 173.59 330.311 174.59C328.551 175.6 327.051 177.09 325.861 179.08V173.2H323.301V203.17H325.861V203.18Z" fill="white"/>
<path d="M573.761 186.52H561.551V189.08H573.761V186.52Z" fill="white"/>
<path d="M693.161 218.85L698.161 209.63L703.151 218.85L713.281 220.67L706.431 228.48L707.781 238.67L698.161 234.22L688.891 238.67L690.161 228.48L682.791 220.56L693.161 218.85Z" fill="white"/>
<path d="M659.12 218.85L664.11 209.63L669.1 218.85L679.23 220.67L672.39 228.48L673.74 238.67L664.11 234.22L654.84 238.67L656.12 228.48L648.74 220.56L659.12 218.85Z" fill="white"/>
<path d="M625.101 218.85L630.091 209.63L635.081 218.85L645.221 220.67L638.371 228.48L639.721 238.67L630.091 234.22L620.831 238.67L622.111 228.48L614.721 220.56L625.101 218.85Z" fill="white"/>
<path d="M591.319 218.85L596.309 209.63L601.299 218.85L611.429 220.67L604.579 228.48L605.929 238.67L596.309 234.22L587.039 238.67L588.319 228.48L580.939 220.56L591.319 218.85Z" fill="white"/>
<path d="M710.39 157.79H707.78V202.59H710.39V157.79ZM698.91 187.84C698.66 191.66 697.38 194.76 695.06 197.13C692.74 199.5 689.86 200.69 686.42 200.69C682.91 200.69 679.94 199.41 677.52 196.84C675.09 194.27 673.87 191.12 673.87 187.41C673.87 183.67 675.1 180.51 677.55 177.93C680 175.35 683 174.06 686.55 174.06C688.47 174.06 690.22 174.47 691.81 175.28C693.4 176.1 694.77 177.29 695.91 178.85L677.2 191.39L678.42 193.42L699.52 179.32C698.01 176.81 696.17 174.93 693.99 173.65C691.81 172.38 689.35 171.74 686.61 171.74C684.48 171.74 682.49 172.13 680.64 172.9C678.78 173.67 677.12 174.8 675.66 176.28C674.18 177.8 673.05 179.52 672.28 181.41C671.51 183.31 671.12 185.33 671.12 187.45C671.12 189.56 671.51 191.57 672.28 193.48C673.05 195.39 674.18 197.1 675.66 198.6C677.1 200.08 678.74 201.21 680.59 201.98C682.44 202.75 684.38 203.14 686.43 203.14C690.62 203.14 694.15 201.71 697.01 198.85C699.87 195.99 701.42 192.32 701.67 187.84H698.91ZM653.98 192.01C653.98 195.54 654.97 198.19 656.96 199.95C658.94 201.71 661.94 202.6 665.93 202.6H667.27V200.14H665.46C662.38 200.14 660.13 199.47 658.71 198.14C657.3 196.81 656.58 194.68 656.58 191.77V174.86H667.26V172.35H656.58V163.77H653.97V192.01H653.98ZM623.94 177.95C626.37 175.38 629.34 174.09 632.85 174.09C636.33 174.09 639.28 175.37 641.7 177.93C644.12 180.49 645.33 183.64 645.33 187.38C645.33 191.08 644.12 194.22 641.7 196.8C639.28 199.38 636.33 200.67 632.85 200.67C629.34 200.67 626.37 199.39 623.94 196.81C621.51 194.24 620.3 191.09 620.3 187.37C620.3 183.67 621.51 180.53 623.94 177.95ZM618.69 193.44C619.46 195.34 620.59 197.06 622.07 198.61C623.51 200.09 625.16 201.22 627 201.99C628.84 202.76 630.79 203.15 632.84 203.15C634.88 203.15 636.83 202.76 638.67 201.99C640.52 201.21 642.16 200.09 643.6 198.61C645.06 197.11 646.17 195.41 646.93 193.51C647.69 191.61 648.07 189.59 648.07 187.47C648.07 185.32 647.69 183.3 646.93 181.4C646.17 179.5 645.06 177.8 643.6 176.3C642.16 174.84 640.52 173.72 638.67 172.93C636.83 172.14 634.88 171.76 632.84 171.76C630.79 171.76 628.84 172.15 627 172.93C625.15 173.72 623.51 174.84 622.07 176.3C620.59 177.86 619.46 179.59 618.69 181.48C617.92 183.37 617.54 185.37 617.54 187.48C617.54 189.55 617.92 191.54 618.69 193.44ZM589.72 202.6V186.13C589.72 182.64 590.69 179.79 592.63 177.55C594.57 175.32 597.05 174.2 600.06 174.2C602.73 174.2 604.93 175.17 606.65 177.11C608.37 179.05 609.24 181.57 609.24 184.66V202.6H611.8V185.16C611.8 181.01 610.74 177.72 608.62 175.31C606.5 172.9 603.65 171.69 600.06 171.69C597.91 171.69 595.94 172.21 594.16 173.26C592.38 174.3 590.9 175.79 589.73 177.71V157.8H587.17V202.6H589.72Z" fill="white"/>
<path d="M371.661 265.904C371.546 266.157 371.38 266.356 371.161 266.501C370.943 266.645 370.722 266.717 370.499 266.717C370.166 266.717 369.92 266.618 369.762 266.419C369.608 266.202 369.562 265.959 369.625 265.688C369.687 265.417 369.776 265.155 369.89 264.902C370.008 264.631 370.096 264.369 370.155 264.116C370.459 262.797 370.315 261.614 369.723 260.566C369.13 259.518 368.146 258.642 366.77 257.938C365.416 257.215 363.69 256.664 361.589 256.285C359.489 255.905 357.095 255.716 354.407 255.716C352.349 255.716 350.241 255.851 348.083 256.122C345.948 256.375 343.858 256.754 341.813 257.26C339.791 257.748 337.858 258.371 336.014 259.13C334.174 259.871 332.519 260.738 331.047 261.731C329.598 262.707 328.382 263.8 327.398 265.01C326.418 266.202 325.763 267.512 325.434 268.939C325.179 270.041 325.195 271.017 325.481 271.866C325.79 272.697 326.297 273.429 327.004 274.061C327.715 274.675 328.593 275.208 329.639 275.66C330.707 276.093 331.882 276.463 333.164 276.771C334.451 277.06 335.804 277.303 337.223 277.502C338.646 277.683 340.084 277.836 341.538 277.963L345.74 278.315C347.83 278.496 349.696 278.685 351.337 278.884C352.979 279.083 354.403 279.336 355.612 279.643C357.623 280.167 359.026 280.917 359.82 281.892C360.615 282.868 360.824 284.168 360.449 285.794C360.086 287.366 359.322 288.748 358.157 289.94C356.991 291.132 355.545 292.135 353.819 292.948C352.092 293.761 350.152 294.375 347.998 294.791C345.844 295.206 343.59 295.414 341.235 295.414C338.677 295.414 336.464 295.242 334.596 294.899C332.743 294.574 331.204 294.212 329.979 293.815C328.778 293.399 327.873 293.02 327.267 292.677C326.66 292.334 326.333 292.144 326.286 292.108C325.993 291.927 325.893 291.638 325.985 291.241C326.056 290.934 326.224 290.69 326.488 290.509C326.756 290.31 327.02 290.211 327.28 290.211C327.484 290.211 327.657 290.265 327.798 290.374C327.817 290.374 328.095 290.536 328.631 290.861C329.191 291.168 330.039 291.512 331.175 291.891C332.329 292.27 333.78 292.614 335.526 292.921C337.272 293.228 339.35 293.381 341.76 293.381C344.152 293.381 346.309 293.192 348.232 292.812C350.155 292.433 351.815 291.909 353.212 291.241C354.631 290.554 355.76 289.759 356.599 288.856C357.461 287.935 358.015 286.941 358.261 285.875C358.407 285.243 358.411 284.701 358.275 284.25C358.161 283.78 357.937 283.382 357.604 283.057C357.276 282.714 356.851 282.425 356.331 282.19C355.829 281.955 355.263 281.757 354.633 281.594C353.97 281.413 353.245 281.26 352.459 281.133C351.691 281.007 350.891 280.898 350.059 280.808C349.227 280.718 348.383 280.636 347.529 280.564C346.692 280.492 345.866 280.42 345.048 280.347L340.846 279.995C337.535 279.724 334.683 279.309 332.29 278.749C329.921 278.171 328.004 277.439 326.54 276.554C325.08 275.651 324.076 274.576 323.53 273.329C322.983 272.083 322.902 270.628 323.286 268.966C323.678 267.268 324.426 265.715 325.53 264.306C326.657 262.878 328.028 261.596 329.645 260.458C331.28 259.32 333.101 258.335 335.11 257.504C337.142 256.655 339.26 255.951 341.466 255.391C343.672 254.83 345.919 254.415 348.206 254.144C350.498 253.855 352.719 253.71 354.87 253.71C357.558 253.71 359.857 253.873 361.765 254.198C363.697 254.505 365.309 254.912 366.601 255.418C367.916 255.905 368.955 256.465 369.717 257.098C370.48 257.73 371.068 258.353 371.482 258.967C372.453 260.467 372.717 262.174 372.274 264.089C372.128 264.721 371.924 265.326 371.661 265.904ZM371.921 273.085C371.763 273.772 371.377 274.359 370.764 274.847C370.173 275.316 369.526 275.551 368.821 275.551C368.117 275.551 367.568 275.316 367.176 274.847C366.807 274.359 366.701 273.772 366.86 273.085C366.939 272.742 367.077 272.426 367.273 272.137C367.474 271.83 367.711 271.568 367.983 271.351C368.279 271.116 368.589 270.936 368.915 270.809C369.259 270.683 369.608 270.619 369.96 270.619C370.312 270.619 370.622 270.683 370.89 270.809C371.175 270.936 371.403 271.116 371.571 271.351C371.762 271.568 371.887 271.83 371.946 272.137C372.009 272.426 372.001 272.742 371.921 273.085ZM363.749 288.965C364.35 286.363 365.115 283.771 366.046 281.187C366.141 280.935 366.302 280.718 366.53 280.537C366.779 280.338 367.062 280.239 367.377 280.239C367.655 280.239 367.862 280.347 367.997 280.564C368.137 280.763 368.175 280.998 368.113 281.269C368.088 281.377 367.985 281.702 367.804 282.244C367.642 282.786 367.436 283.437 367.187 284.195C366.96 284.936 366.721 285.731 366.469 286.58C366.24 287.411 366.044 288.179 365.882 288.883C365.661 289.841 365.574 290.617 365.622 291.214C365.692 291.792 365.838 292.243 366.06 292.568C366.3 292.894 366.574 293.11 366.883 293.219C367.21 293.327 367.531 293.381 367.847 293.381C368.366 293.381 368.945 293.201 369.585 292.839C370.224 292.478 370.907 291.972 371.632 291.322C372.375 290.672 373.148 289.895 373.95 288.992C374.756 288.07 375.575 287.05 376.409 285.93C376.543 285.749 376.704 285.613 376.892 285.523C377.084 285.415 377.282 285.361 377.486 285.361C377.782 285.361 377.998 285.469 378.134 285.686C378.288 285.902 378.335 286.137 378.277 286.39C378.235 286.571 378.163 286.724 378.059 286.851C377.741 287.266 377.346 287.772 376.875 288.368C376.403 288.965 375.881 289.579 375.309 290.211C374.736 290.843 374.118 291.476 373.452 292.108C372.81 292.722 372.143 293.282 371.451 293.788C370.764 294.276 370.07 294.673 369.368 294.98C368.667 295.287 367.992 295.441 367.343 295.441C366.509 295.441 365.816 295.269 365.265 294.926C364.714 294.583 364.283 294.122 363.971 293.544C363.678 292.966 363.51 292.288 363.467 291.512C363.447 290.717 363.541 289.868 363.749 288.965ZM370.364 273.085C370.422 272.832 370.37 272.616 370.208 272.435C370.069 272.236 369.869 272.137 369.61 272.137C369.35 272.137 369.105 272.236 368.873 272.435C368.646 272.616 368.503 272.832 368.445 273.085C368.387 273.338 368.429 273.555 368.573 273.736C368.717 273.916 368.918 274.007 369.178 274.007C369.437 274.007 369.681 273.916 369.908 273.736C370.153 273.555 370.306 273.338 370.364 273.085ZM381.172 291.918C381.606 291.322 382.099 290.672 382.652 289.967C383.208 289.245 383.792 288.522 384.404 287.799C385.02 287.059 385.652 286.327 386.301 285.604C386.968 284.882 387.646 284.195 388.334 283.545C389.018 282.913 389.66 282.461 390.26 282.19C390.883 281.901 391.435 281.757 391.917 281.757C392.881 281.757 393.516 282.1 393.821 282.786C394.126 283.473 394.162 284.322 393.928 285.333C393.874 285.568 393.789 285.857 393.672 286.201C393.579 286.526 393.469 286.878 393.345 287.257C393.239 287.637 393.121 288.025 392.992 288.423C392.886 288.802 392.793 289.163 392.714 289.506C392.614 289.94 392.537 290.356 392.482 290.753C392.446 291.15 392.457 291.503 392.516 291.81C392.579 292.099 392.71 292.334 392.91 292.514C393.113 292.677 393.409 292.758 393.799 292.758C394.503 292.758 395.25 292.496 396.038 291.972C396.831 291.43 397.589 290.798 398.312 290.076C399.058 289.335 399.722 288.585 400.305 287.826C400.907 287.068 401.364 286.453 401.676 285.984C401.815 285.785 401.98 285.631 402.172 285.523C402.382 285.415 402.589 285.361 402.793 285.361C403.109 285.361 403.332 285.478 403.463 285.713C403.617 285.93 403.665 286.164 403.606 286.417C403.577 286.544 403.52 286.67 403.435 286.797C403.328 286.941 403.11 287.239 402.784 287.691C402.457 288.143 402.039 288.666 401.531 289.263C401.045 289.841 400.484 290.464 399.848 291.132C399.215 291.783 398.54 292.379 397.822 292.921C397.122 293.463 396.387 293.914 395.618 294.276C394.867 294.637 394.12 294.818 393.379 294.818C392.545 294.818 391.903 294.664 391.455 294.357C391.011 294.032 390.699 293.616 390.519 293.11C390.344 292.587 390.271 292.018 390.302 291.403C390.355 290.771 390.455 290.139 390.601 289.506C390.663 289.235 390.743 288.928 390.841 288.585C390.957 288.242 391.078 287.881 391.203 287.501C391.346 287.122 391.471 286.743 391.577 286.363C391.701 285.984 391.803 285.622 391.883 285.279C392.016 284.701 392.013 284.313 391.873 284.114C391.738 283.897 391.596 283.789 391.448 283.789C391.151 283.789 390.769 283.96 390.3 284.304C389.854 284.629 389.355 285.062 388.804 285.604C388.271 286.146 387.703 286.761 387.099 287.447C386.518 288.115 385.956 288.784 385.412 289.452C384.887 290.121 384.387 290.762 383.911 291.376C383.459 291.972 383.094 292.469 382.816 292.867C382.27 293.625 381.783 294.131 381.354 294.384C380.92 294.655 380.509 294.791 380.119 294.791C379.582 294.791 379.181 294.637 378.919 294.33C378.679 294.005 378.625 293.553 378.759 292.975C378.788 292.849 378.863 292.605 378.983 292.243C379.108 291.864 379.257 291.421 379.429 290.916C379.606 290.392 379.79 289.832 379.984 289.235C380.177 288.639 380.368 288.052 380.557 287.474C380.751 286.878 380.924 286.327 381.078 285.821C381.232 285.315 381.349 284.891 381.428 284.548C381.532 284.096 381.614 283.662 381.673 283.247C381.731 282.831 381.716 282.578 381.625 282.488C381.446 282.542 381.07 282.886 380.498 283.518C379.929 284.132 379.13 285.225 378.1 286.797C377.961 286.995 377.786 287.149 377.576 287.257C377.366 287.366 377.158 287.42 376.954 287.42C376.639 287.42 376.412 287.321 376.272 287.122C376.137 286.905 376.101 286.661 376.163 286.39C376.192 286.264 376.252 286.128 376.341 285.984C377.621 284.051 378.727 282.633 379.659 281.729C380.613 280.808 381.452 280.347 382.175 280.347C382.602 280.347 382.938 280.456 383.185 280.673C383.435 280.871 383.605 281.142 383.692 281.486C383.798 281.829 383.841 282.208 383.819 282.624C383.816 283.039 383.764 283.464 383.664 283.897C383.589 284.222 383.444 284.728 383.23 285.415C383.034 286.101 382.808 286.842 382.55 287.637C382.296 288.414 382.043 289.19 381.789 289.967C381.554 290.744 381.349 291.394 381.172 291.918ZM419.72 286.851C419.563 287.05 419.284 287.411 418.885 287.935C418.505 288.459 418.006 289.055 417.388 289.723C416.793 290.374 416.099 291.051 415.305 291.756C414.512 292.46 413.639 293.11 412.686 293.707C411.736 294.285 410.708 294.763 409.601 295.143C408.512 295.522 407.374 295.712 406.188 295.712C405.131 295.712 404.238 295.522 403.51 295.143C402.778 294.781 402.202 294.267 401.781 293.598C401.365 292.912 401.115 292.108 401.031 291.187C400.947 290.265 401.034 289.245 401.293 288.124C401.543 287.041 401.935 286.029 402.467 285.09C403.003 284.132 403.621 283.301 404.322 282.597C405.04 281.892 405.807 281.341 406.622 280.944C407.441 280.528 408.259 280.32 409.074 280.32C409.686 280.32 410.217 280.429 410.668 280.646C411.123 280.844 411.477 281.115 411.732 281.458C412.005 281.802 412.186 282.181 412.275 282.597C412.383 283.012 412.389 283.428 412.294 283.843C412.202 284.24 412.061 284.611 411.87 284.954C411.698 285.297 411.497 285.604 411.268 285.875C411.061 286.128 410.837 286.336 410.596 286.499C410.358 286.643 410.138 286.715 409.934 286.715C409.619 286.715 409.382 286.616 409.224 286.417C409.084 286.219 409.048 285.975 409.115 285.686C409.148 285.541 409.205 285.415 409.286 285.306C409.385 285.198 409.484 285.09 409.583 284.981C409.705 284.855 409.813 284.71 409.906 284.548C410.022 284.367 410.111 284.141 410.174 283.87C410.261 283.491 410.155 283.148 409.855 282.84C409.574 282.533 409.155 282.38 408.599 282.38C408.08 282.38 407.544 282.533 406.991 282.84C406.456 283.148 405.952 283.563 405.479 284.087C405.01 284.593 404.583 285.198 404.198 285.902C403.835 286.589 403.564 287.321 403.385 288.097C403.214 288.838 403.144 289.543 403.175 290.211C403.206 290.879 403.347 291.476 403.596 291.999C403.85 292.505 404.22 292.912 404.705 293.219C405.209 293.526 405.851 293.68 406.629 293.68C407.63 293.68 408.597 293.508 409.529 293.165C410.465 292.803 411.348 292.352 412.178 291.81C413.008 291.268 413.765 290.681 414.448 290.048C415.136 289.398 415.73 288.793 416.23 288.233C416.753 287.655 417.164 287.158 417.464 286.743C417.787 286.309 417.979 286.038 418.041 285.93C418.157 285.749 418.309 285.613 418.497 285.523C418.707 285.415 418.914 285.361 419.118 285.361C419.433 285.361 419.659 285.469 419.794 285.686C419.948 285.902 419.994 286.146 419.931 286.417C419.906 286.526 419.836 286.67 419.72 286.851ZM420.121 291.376C420.389 291.9 420.792 292.325 421.329 292.65C421.87 292.957 422.585 293.11 423.475 293.11C424.383 293.11 425.256 292.903 426.094 292.487C426.936 292.054 427.742 291.494 428.512 290.807C429.282 290.121 430.007 289.353 430.685 288.504C431.363 287.655 431.995 286.806 432.58 285.957C432.719 285.758 432.882 285.613 433.07 285.523C433.261 285.415 433.459 285.361 433.663 285.361C433.978 285.361 434.204 285.469 434.339 285.686C434.493 285.902 434.541 286.137 434.482 286.39C434.461 286.481 434.433 286.562 434.398 286.634C434.367 286.688 434.325 286.752 434.271 286.824C432.358 289.57 430.48 291.638 428.639 293.029C426.816 294.42 424.945 295.134 423.027 295.17C421.803 295.17 420.801 294.935 420.019 294.465C419.234 294.014 418.637 293.427 418.229 292.704C417.825 291.963 417.591 291.132 417.525 290.211C417.46 289.29 417.534 288.368 417.747 287.447C417.959 286.526 418.267 285.677 418.668 284.9C419.089 284.123 419.579 283.446 420.139 282.868C420.717 282.289 421.341 281.838 422.009 281.513C422.696 281.187 423.401 281.025 424.124 281.025C424.551 281.025 424.947 281.115 425.313 281.296C425.702 281.458 426.026 281.702 426.284 282.028C426.547 282.335 426.728 282.714 426.828 283.166C426.928 283.617 426.911 284.132 426.777 284.71C426.606 285.451 426.316 286.146 425.906 286.797C425.496 287.447 424.995 288.052 424.402 288.612C423.828 289.172 423.171 289.687 422.433 290.157C421.694 290.626 420.923 291.033 420.121 291.376ZM419.693 289.615C420.322 289.38 420.91 289.082 421.457 288.721C422.023 288.359 422.522 287.962 422.956 287.528C423.39 287.095 423.754 286.643 424.048 286.173C424.346 285.686 424.551 285.198 424.664 284.71C424.789 284.168 424.744 283.762 424.528 283.491C424.317 283.202 424.026 283.057 423.655 283.057C423.154 283.057 422.697 283.193 422.282 283.464C421.867 283.735 421.498 284.087 421.176 284.52C420.853 284.954 420.573 285.442 420.337 285.984C420.123 286.508 419.956 287.032 419.835 287.555C419.76 287.881 419.709 288.224 419.681 288.585C419.671 288.946 419.676 289.29 419.693 289.615Z" fill="white"/>
<path d="M464.708 252.005C464.554 252.671 464.249 253.346 463.791 254.028C463.337 254.694 462.889 255.336 462.446 255.953C462.187 257.075 461.884 258.35 461.537 259.78C461.211 261.193 460.868 262.68 460.507 264.24C460.147 265.8 459.771 267.392 459.379 269.017C459.004 270.642 458.63 272.226 458.257 273.769C457.904 275.297 457.572 276.735 457.261 278.083C456.949 279.432 456.667 280.618 456.414 281.641C456.178 282.665 455.99 283.477 455.851 284.079C455.713 284.68 455.639 284.997 455.632 285.029C455.572 285.289 455.43 285.508 455.205 285.687C454.98 285.866 454.734 285.955 454.468 285.955C454.201 285.955 453.996 285.866 453.854 285.687C453.729 285.508 453.696 285.289 453.756 285.029C453.763 284.997 453.865 284.558 454.06 283.713C454.259 282.852 454.519 281.723 454.842 280.325C455.181 278.928 455.557 277.336 455.97 275.548C456.387 273.745 456.816 271.885 457.259 269.967C457.722 268.034 458.173 266.116 458.612 264.215C459.071 262.298 459.489 260.527 459.864 258.902C458.73 260.056 457.563 261.104 456.362 262.046C455.18 262.973 454.086 263.777 453.078 264.459C452.09 265.125 451.26 265.653 450.586 266.043C449.933 266.417 449.567 266.628 449.489 266.677C449.283 266.775 449.105 266.823 448.955 266.823C448.722 266.823 448.524 266.742 448.361 266.58C448.202 266.401 448.155 266.173 448.218 265.897C448.294 265.572 448.504 265.312 448.849 265.117C448.869 265.101 449.071 264.987 449.453 264.776C449.839 264.549 450.344 264.24 450.967 263.85C451.595 263.444 452.316 262.956 453.131 262.388C453.95 261.803 454.79 261.161 455.652 260.462C456.534 259.747 457.404 258.976 458.262 258.147C459.125 257.302 459.921 256.416 460.652 255.49C460.712 255.23 460.778 254.946 460.849 254.637C460.924 254.312 460.997 253.996 461.068 253.687C461.143 253.362 461.213 253.061 461.277 252.785C461.344 252.493 461.4 252.249 461.445 252.054C461.648 251.323 461.92 250.795 462.261 250.47C462.624 250.129 463.047 249.958 463.53 249.958C464.014 249.958 464.359 250.161 464.565 250.567C464.788 250.973 464.836 251.453 464.708 252.005Z" fill="white"/>
<path d="M511.551 265.027C510.87 267.975 509.723 270.891 508.11 273.773C506.524 276.633 504.583 279.318 502.288 281.826C500.02 284.312 497.459 286.557 494.603 288.559C491.747 290.561 488.735 292.167 485.565 293.378C483.782 294.06 482.124 294.588 480.593 294.962C479.061 295.336 477.711 295.611 476.541 295.787C475.394 295.963 474.479 296.062 473.796 296.084C473.109 296.128 472.731 296.15 472.663 296.15C472.297 296.172 472.02 296.051 471.833 295.787C471.64 295.545 471.584 295.248 471.666 294.896C471.747 294.544 471.94 294.247 472.244 294.005C472.543 293.785 472.873 293.675 473.235 293.675C473.257 293.675 473.578 293.653 474.198 293.609C474.836 293.587 475.683 293.488 476.74 293.312C477.814 293.158 479.069 292.905 480.505 292.553C481.964 292.2 483.523 291.705 485.184 291.067C487.962 289.989 490.64 288.559 493.219 286.777C495.821 284.995 498.174 282.97 500.277 280.704C502.409 278.416 504.234 275.94 505.751 273.278C507.274 270.594 508.363 267.832 509.018 264.994C509.531 262.772 509.649 260.791 509.373 259.053C509.125 257.293 508.599 255.753 507.798 254.433C507.024 253.09 506.021 251.957 504.789 251.033C503.584 250.087 502.283 249.317 500.885 248.723C499.509 248.129 498.095 247.7 496.643 247.436C495.213 247.172 493.866 247.04 492.602 247.04C490.841 247.04 489.084 247.216 487.331 247.568C485.584 247.898 483.892 248.382 482.254 249.02C480.644 249.636 479.103 250.395 477.63 251.297C476.185 252.177 474.881 253.179 473.719 254.301C472.579 255.423 471.598 256.644 470.773 257.964C469.977 259.262 469.411 260.637 469.076 262.09C468.71 263.674 468.597 265.093 468.737 266.347C468.882 267.579 469.215 268.679 469.737 269.648C470.286 270.594 470.979 271.408 471.815 272.09C472.674 272.772 473.617 273.333 474.644 273.773C475.699 274.191 476.814 274.499 477.987 274.697C479.161 274.895 480.335 274.994 481.509 274.994C483.835 274.994 486.097 274.686 488.294 274.07C490.518 273.432 492.582 272.563 494.484 271.463C496.392 270.341 498.085 269.021 499.565 267.502C501.067 265.984 502.261 264.334 503.146 262.552C503.28 262.266 503.478 262.046 503.739 261.892C504.005 261.716 504.285 261.628 504.579 261.628C504.963 261.628 505.237 261.76 505.402 262.024C505.595 262.266 505.653 262.552 505.577 262.882C505.571 262.904 505.564 262.937 505.554 262.981C505.549 263.003 505.522 263.069 505.474 263.179C504.55 265.225 503.242 267.128 501.548 268.889C499.86 270.627 497.92 272.134 495.729 273.41C493.565 274.664 491.225 275.654 488.709 276.38C486.193 277.107 483.636 277.47 481.04 277.47C478.736 277.47 476.574 277.151 474.554 276.512C472.533 275.874 470.824 274.917 469.425 273.641C468.048 272.365 467.073 270.77 466.498 268.855C465.924 266.941 465.934 264.697 466.528 262.123C467.112 259.592 468.263 257.249 469.98 255.093C471.719 252.936 473.806 251.088 476.239 249.548C478.677 247.986 481.363 246.765 484.299 245.885C487.234 245.004 490.193 244.564 493.173 244.564C495.138 244.564 497.018 244.784 498.813 245.224C500.636 245.643 502.309 246.27 503.832 247.106C505.36 247.92 506.71 248.921 507.881 250.109C509.052 251.297 509.982 252.65 510.67 254.169C511.381 255.687 511.819 257.359 511.985 259.185C512.178 260.989 512.033 262.937 511.551 265.027ZM561.681 265.027C561.001 267.975 559.854 270.891 558.24 273.773C556.654 276.633 554.713 279.318 552.418 281.826C550.151 284.312 547.589 286.557 544.734 288.559C541.878 290.561 538.865 292.167 535.695 293.378C533.912 294.06 532.255 294.588 530.723 294.962C529.192 295.336 527.841 295.611 526.671 295.787C525.524 295.963 524.609 296.062 523.927 296.084C523.239 296.128 522.862 296.15 522.794 296.15C522.427 296.172 522.151 296.051 521.963 295.787C521.771 295.545 521.715 295.248 521.796 294.896C521.877 294.544 522.07 294.247 522.374 294.005C522.674 293.785 523.004 293.675 523.365 293.675C523.388 293.675 523.709 293.653 524.329 293.609C524.966 293.587 525.813 293.488 526.87 293.312C527.944 293.158 529.199 292.905 530.636 292.553C532.094 292.2 533.654 291.705 535.314 291.067C538.092 289.989 540.771 288.559 543.35 286.777C545.951 284.995 548.304 282.97 550.408 280.704C552.539 278.416 554.364 275.94 555.882 273.278C557.404 270.594 558.493 267.832 559.149 264.994C559.661 262.772 559.78 260.791 559.504 259.053C559.255 257.293 558.73 255.753 557.928 254.433C557.154 253.09 556.151 251.957 554.919 251.033C553.715 250.087 552.413 249.317 551.015 248.723C549.639 248.129 548.225 247.7 546.773 247.436C545.344 247.172 543.997 247.04 542.732 247.04C540.971 247.04 539.214 247.216 537.462 247.568C535.715 247.898 534.022 248.382 532.385 249.02C530.775 249.636 529.233 250.395 527.761 251.297C526.315 252.177 525.012 253.179 523.85 254.301C522.71 255.423 521.728 256.644 520.904 257.964C520.107 259.262 519.542 260.637 519.207 262.09C518.841 263.674 518.728 265.093 518.867 266.347C519.012 267.579 519.345 268.679 519.867 269.648C520.416 270.594 521.109 271.408 521.945 272.09C522.804 272.772 523.747 273.333 524.775 273.773C525.83 274.191 526.944 274.499 528.118 274.697C529.292 274.895 530.466 274.994 531.64 274.994C533.966 274.994 536.227 274.686 538.424 274.07C540.649 273.432 542.712 272.563 544.615 271.463C546.522 270.341 548.216 269.021 549.695 267.502C551.197 265.984 552.391 264.334 553.277 262.552C553.41 262.266 553.608 262.046 553.869 261.892C554.136 261.716 554.416 261.628 554.709 261.628C555.093 261.628 555.368 261.76 555.532 262.024C555.725 262.266 555.783 262.552 555.707 262.882C555.702 262.904 555.694 262.937 555.684 262.981C555.679 263.003 555.653 263.069 555.605 263.179C554.681 265.225 553.372 267.128 551.679 268.889C549.99 270.627 548.05 272.134 545.859 273.41C543.695 274.664 541.355 275.654 538.839 276.38C536.323 277.107 533.767 277.47 531.17 277.47C528.867 277.47 526.705 277.151 524.684 276.512C522.664 275.874 520.954 274.917 519.555 273.641C518.178 272.365 517.203 270.77 516.629 268.855C516.054 266.941 516.064 264.697 516.659 262.123C517.243 259.592 518.393 257.249 520.11 255.093C521.85 252.936 523.936 251.088 526.369 249.548C528.807 247.986 531.494 246.765 534.429 245.885C537.365 245.004 540.323 244.564 543.304 244.564C545.268 244.564 547.148 244.784 548.943 245.224C550.766 245.643 552.439 246.27 553.963 247.106C555.491 247.92 556.84 248.921 558.011 250.109C559.182 251.297 560.112 252.65 560.8 254.169C561.511 255.687 561.95 257.359 562.115 259.185C562.308 260.989 562.164 262.937 561.681 265.027Z" fill="white"/>
<path d="M591.592 275.416C591.256 276.871 590.704 278.18 589.938 279.344C589.192 280.492 588.283 281.518 587.211 282.424C586.159 283.313 584.972 284.073 583.648 284.703C582.325 285.334 580.928 285.851 579.457 286.255C578 286.675 576.487 286.974 574.92 287.152C573.365 287.346 571.816 287.443 570.273 287.443C568.614 287.443 567.119 287.306 565.789 287.031C564.459 286.756 563.293 286.417 562.291 286.013C561.286 285.625 560.446 285.204 559.77 284.752C559.091 284.315 558.575 283.927 558.222 283.588C558.141 283.507 558.096 283.418 558.085 283.321C558.061 283.208 558.064 283.087 558.094 282.957C558.15 282.715 558.292 282.496 558.519 282.302C558.746 282.108 558.993 282.011 559.258 282.011C559.391 282.011 559.501 282.036 559.59 282.084C559.678 282.133 559.771 282.197 559.869 282.278C560.097 282.44 560.465 282.715 560.972 283.103C561.5 283.475 562.201 283.854 563.073 284.242C563.946 284.63 564.996 284.97 566.223 285.261C567.463 285.568 568.904 285.722 570.546 285.722C571.924 285.722 573.309 285.649 574.703 285.503C576.114 285.358 577.481 285.115 578.803 284.776C580.122 284.453 581.374 284.024 582.559 283.491C583.745 282.957 584.815 282.311 585.77 281.551C586.742 280.791 587.561 279.902 588.227 278.883C588.911 277.865 589.402 276.709 589.7 275.416C590.047 273.912 590.026 272.603 589.637 271.487C589.264 270.372 588.566 269.442 587.543 268.699C586.54 267.939 585.236 267.373 583.629 267.001C582.04 266.629 580.199 266.444 578.109 266.444C576.516 266.444 575.132 266.508 573.958 266.638C572.803 266.751 571.816 266.896 570.995 267.074C570.194 267.236 569.533 267.405 569.011 267.583C568.505 267.761 568.105 267.915 567.809 268.044C567.662 268.109 567.489 268.173 567.292 268.238C567.111 268.303 566.937 268.335 566.772 268.335C566.489 268.335 566.286 268.246 566.161 268.068C566.04 267.874 566.018 267.648 566.094 267.389L570.587 251.167C570.663 250.908 570.811 250.698 571.031 250.536C571.267 250.375 571.526 250.294 571.809 250.294C572.024 250.294 572.402 250.31 572.942 250.342C573.503 250.358 574.119 250.383 574.792 250.415C575.485 250.431 576.185 250.455 576.89 250.488C577.617 250.504 578.262 250.512 578.826 250.512C580.933 250.512 582.875 250.472 584.653 250.391C586.45 250.294 588.008 250.197 589.324 250.1C590.641 250.003 591.682 249.914 592.447 249.833C593.216 249.736 593.634 249.687 593.7 249.687C593.932 249.687 594.121 249.768 594.266 249.93C594.428 250.092 594.479 250.302 594.419 250.56C594.367 250.787 594.244 250.997 594.05 251.191C593.859 251.369 593.636 251.474 593.379 251.506C593.363 251.506 592.962 251.555 592.176 251.652C591.394 251.732 590.327 251.829 588.973 251.943C587.64 252.04 586.058 252.137 584.227 252.234C582.417 252.314 580.466 252.355 578.376 252.355C577.38 252.355 576.362 252.347 575.32 252.331C574.299 252.298 573.257 252.25 572.193 252.185L568.338 266.08C568.819 265.934 569.404 265.773 570.092 265.595C570.78 265.417 571.556 265.255 572.419 265.11C573.282 264.964 574.223 264.843 575.241 264.746C576.258 264.649 577.34 264.601 578.485 264.601C580.575 264.601 582.518 264.811 584.312 265.231C586.11 265.635 587.62 266.282 588.841 267.171C590.067 268.044 590.936 269.168 591.448 270.542C591.98 271.9 592.028 273.524 591.592 275.416Z" fill="white"/>
</svg>
