<svg width="765" height="238" viewBox="0 0 765 238" fill="none" xmlns="http://www.w3.org/2000/svg">
<path d="M283.548 142.46H255.438L250.698 132.3H222.758L218.178 142.46H210.068L242.748 70.6201H249.748L283.548 142.46ZM247.178 124.88L236.548 102.14L226.178 124.88H247.178Z" fill="white"/>
<path d="M353.909 128.24C353.839 132.55 352.809 136 350.809 138.55C349.539 140.17 347.659 141.48 345.149 142.48C342.639 143.48 339.959 143.98 337.119 143.98C332.559 143.98 328.709 142.74 325.589 140.25C322.469 137.76 319.259 133.39 315.959 127.15C315.749 127.15 315.199 127.17 314.329 127.2C313.519 127.27 312.979 127.31 312.699 127.31V142.47H287.329V70.6201H318.019C323.779 70.6201 328.489 70.9801 332.179 71.7301C335.859 72.4601 339.119 73.7101 341.959 75.4701C350.029 80.4101 354.069 87.3501 354.069 96.2501C354.069 102.74 351.939 108.22 347.699 112.7C343.459 117.17 336.819 120.91 327.809 123.93C329.559 126.21 331.809 128.04 334.539 129.4C337.269 130.77 340.069 131.45 342.899 131.45C346.209 131.46 349.879 130.39 353.909 128.24ZM312.699 119.77C313.149 119.77 313.519 119.77 313.799 119.77C315.699 119.77 317.519 119.42 319.279 118.71C321.029 118.01 322.439 117.08 323.489 115.92C324.799 114.45 325.689 112.45 326.169 109.95C326.659 107.44 326.909 103.51 326.909 98.1401C326.909 93.5101 326.739 90.1301 326.409 88.0101C326.069 85.8901 325.439 84.1201 324.489 82.7201C322.309 79.5601 318.839 77.9801 314.069 77.9801C313.809 77.9801 313.369 78.0001 312.699 78.0301V119.77Z" fill="white"/>
<path d="M428.489 142.46H400.389L395.649 132.3H367.699L363.119 142.46H355.019L387.699 70.6201H394.699L428.489 142.46ZM392.119 124.88L381.489 102.14L371.119 124.88H392.119Z" fill="white"/>
<path d="M490.019 138.08C484.399 142.01 476.519 143.97 466.389 143.97C454.419 143.97 444.719 140.83 437.279 134.55C428.999 127.57 424.849 118.19 424.849 106.39C424.849 97.5203 427.099 89.9103 431.589 83.5603C438.399 73.8703 448.859 69.0303 462.959 69.0303C468.709 69.0303 473.509 69.7203 477.329 71.1103C481.159 72.5003 484.709 74.8403 488.019 78.1403C486.189 80.9403 483.289 82.5603 479.329 82.9703C478.099 80.4603 476.759 78.7103 475.309 77.7703C473.849 76.8203 471.799 76.3403 469.169 76.3403C463.029 76.3403 458.289 78.7603 454.959 83.6103C453.799 85.2503 453.019 87.5103 452.619 90.3703C452.209 93.2203 452.019 97.8303 452.019 104.18C452.019 113.2 452.229 119.58 452.669 123.34C453.109 127.09 453.939 129.89 455.169 131.7C456.189 133.21 457.379 134.32 458.769 135.02C460.159 135.72 462.109 136.22 464.629 136.49V90.5603H489.999V138.08" fill="white"/>
<path d="M532.169 69.0898C541.949 69.0898 550.239 72.7598 557.009 80.0898C563.569 87.2098 566.849 96.3498 566.849 107.51C566.849 113.12 565.639 118.57 563.209 123.88C560.049 130.87 555.109 136.21 548.369 139.93C543.419 142.63 538.019 143.98 532.159 143.98C526.299 143.98 520.889 142.63 515.939 139.93C509.379 136.39 504.409 131.12 501.049 124.14C498.239 118.35 496.829 112.3 496.829 105.98C496.829 95.0698 500.539 85.9998 507.949 78.7698C514.449 72.4198 522.519 69.1898 532.169 69.0898ZM539.689 105.19V96.0898C539.689 87.8498 539.239 82.6698 538.329 80.5598C537.129 77.7898 534.989 76.3998 531.899 76.3998C528.539 76.3998 526.239 77.8598 525.009 80.7698C524.589 81.7498 524.339 82.8898 524.239 84.1698C524.159 85.4498 524.079 89.2698 524.009 95.6198L524.049 105.51V116.35C524.089 122.45 524.139 126.12 524.209 127.34C524.279 128.57 524.459 129.78 524.729 130.97C525.119 132.7 525.959 134.07 527.249 135.11C528.549 136.14 530.069 136.66 531.829 136.66C534.179 136.66 535.959 135.97 537.169 134.59C538.379 133.2 539.119 130.98 539.409 127.93C539.539 126.95 539.629 119.37 539.689 105.19Z" fill="white"/>
<path d="M625.799 78.8796C623.969 81.5796 621.129 83.5296 617.269 84.7196C615.199 81.6996 612.989 79.5596 610.609 78.2996C608.239 77.0296 605.269 76.3996 601.689 76.3996C599.179 76.3996 597.219 76.8196 595.849 77.6596C594.279 78.6096 593.489 79.8396 593.489 81.3396C593.489 82.9896 594.539 84.2996 596.639 85.2896C597.419 85.6796 600.009 86.4496 604.429 87.5996C610.299 89.1796 614.929 90.6596 618.319 92.0496C621.729 93.4396 624.379 94.9596 626.279 96.5996C631.999 101.52 634.849 108.09 634.849 116.34C634.849 124.83 632.059 131.5 626.489 136.33C623.429 138.96 619.999 140.89 616.179 142.12C612.349 143.35 607.819 143.96 602.589 143.96C593.149 143.96 585.559 141.91 579.809 137.8C574.059 133.73 571.179 128.76 571.179 122.91C571.179 118.31 573.199 114.03 577.229 110.07C579.059 110.59 581.059 111.48 583.259 112.72C585.449 113.96 587.459 115.38 589.279 116.96C586.689 118.43 584.929 119.69 584.019 120.73C583.109 121.76 582.649 123.05 582.649 124.6C582.649 127.86 584.329 130.68 587.699 133.06C591.139 135.45 595.659 136.64 601.229 136.64C606.979 136.64 611.529 135.69 614.859 133.8C616.339 132.96 617.539 131.81 618.469 130.35C619.399 128.9 619.859 127.43 619.859 125.96C619.859 122.66 618.089 119.95 614.549 117.85C612.619 116.69 608.629 115.25 602.599 113.53C596.389 111.74 591.979 110.31 589.369 109.24C586.759 108.17 584.449 106.83 582.449 105.21C577.189 101 574.549 95.6996 574.549 89.3196C574.549 82.1596 577.119 76.8996 582.239 73.5296C586.799 70.5496 592.979 69.0596 600.769 69.0596C606.839 69.0596 612.019 69.8996 616.319 71.5796C620.589 73.2996 623.759 75.7196 625.799 78.8796Z" fill="white"/>
<path d="M679.169 142.46H653.799V77.8201H633.969V70.6201H699.009V77.8201H679.169V142.46Z" fill="white"/>
<path d="M764.349 142.46H736.259L731.509 132.3H703.569L698.999 142.46H690.889L723.569 70.6201H730.569L764.349 142.46ZM727.989 124.88L717.359 102.14L706.999 124.88H727.989Z" fill="white"/>
<path d="M266.219 222.21C241.399 217.98 196.309 209.06 167.279 195.84C162.989 193.88 158.459 191.72 153.799 189.43C153.159 187.06 152.559 185.35 152.559 185.35L151.689 156.59C151.689 156.59 149.939 154.41 149.939 147.44C149.939 140.47 152.119 137.42 153.859 136.54C155.609 135.68 156.039 131.32 156.039 131.32C156.039 131.32 160.399 135.68 163.879 135.68C164.819 135.68 167.169 138.84 170.089 143.48C164.149 149.33 159.279 154.67 158.649 157.03C156.909 163.57 159.959 164.01 172.599 164.01C173.829 164.01 174.869 163.89 175.839 163.71C175.639 167.14 175.499 170.89 175.499 174.11C175.489 177.22 175.649 179.91 175.949 181.18L176.039 181.51C177.149 181.17 180.219 179.52 183.139 177.09C184.409 176.06 185.709 174.89 186.949 173.63C189.009 177.64 190.369 180.49 190.469 181C190.909 183.19 190.909 193.2 192.209 195.82C193.519 198.44 198.319 192.33 195.709 184.92C194.889 182.6 192.369 177.26 189.289 171.01C190.519 169.5 191.589 167.92 192.399 166.31C196.769 157.75 201.919 145.88 207.569 143.23C210.939 141.64 212.919 140.33 213.019 134.45C213.019 132.19 212.659 129.27 211.829 125.54C208.729 111.65 205.779 92.93 185.529 89.14C164.589 85.2 146.949 85.5 129.139 83.04L128.959 83.02L128.809 82.94L126.479 81.77C124.919 81.34 101.959 75.02 95.3587 72.63C89.5887 70.51 79.9687 68.39 77.6987 67.89C77.1187 68.38 75.8687 69.5 75.9987 70.27C75.9787 70.8 76.4187 71.88 79.6187 73.04L79.9587 73.16L80.1587 73.45C80.2487 73.61 80.9087 74.68 80.9087 76.75C80.9087 78.17 80.5987 80.04 79.6487 82.39C78.0787 86.46 76.3287 89.3 72.1587 89.23C70.8187 89.23 69.2787 88.98 67.3987 88.52C63.5687 87.55 55.9287 84.38 48.9687 80.23C42.0487 76.04 35.6987 71.1 34.8787 65.65C34.2787 60.94 33.2287 58.85 33.1887 56.68C33.1987 54.46 34.5887 52.95 37.7387 50.62C44.5887 45.53 83.1187 27.92 129.069 18.09C164.699 10.49 212.779 2.65 242.559 0.0100002C241.569 2.29105e-07 240.549 0 239.499 0C216.459 0 181.509 1.85 145.369 9.82C73.5287 25.62 36.1787 41.65 29.9587 47.4C26.4387 50.6 20.8787 55.91 20.8887 64.03C20.8787 71.34 25.4087 81.38 40.9487 94.62L46.7387 99.9L45.4187 100.62C45.4287 100.64 41.9387 102.53 38.4687 105.74C34.9687 108.96 31.6287 113.41 31.6387 118.28C31.6487 119.75 31.9487 121.3 32.6487 122.91C30.5687 123.26 28.9987 123.48 28.3687 123.48C25.3187 123.48 25.3187 120.43 22.2587 124.35C19.2087 128.28 14.3687 140.04 12.6787 141.35C10.9887 142.66 8.75871 143.97 4.8287 150.06C0.908705 156.17 -4.3113 174.9 6.1387 180.57C6.1387 180.57 5.3187 172.72 7.0187 165.32C8.6987 157.91 9.1987 153.55 11.8087 151.81C14.4287 150.06 21.8287 136.99 23.1387 133.94C24.4387 130.88 29.2387 127.39 33.5887 127.39H35.5987C36.6887 128.62 38.0087 129.88 39.6487 131.17C39.9287 131.39 40.2587 131.63 40.5587 131.86C39.6587 134.2 38.5387 137.16 37.5087 140.03C35.3287 146.14 30.9687 155.28 31.3987 158.77C31.8287 162.25 35.7587 174.02 39.2387 176.64C42.7287 179.26 44.0387 179.26 44.0387 179.26C44.0387 179.26 39.2387 168.81 38.8087 164.88C38.3787 160.95 38.3787 158.77 38.3787 155.29C38.3787 151.8 40.9887 143.96 42.7287 140.48C43.4487 139.04 44.4887 137.38 45.9287 135.77C47.4487 136.83 49.0687 137.95 50.7987 139.1C49.9187 140.14 49.3687 141.07 49.2687 141.78C48.9787 143.8 51.1687 142.95 54.0687 141.27C55.1087 141.95 56.1787 142.65 57.2687 143.35C55.0687 145.63 53.4887 147.98 53.2987 150.05C52.9087 154.08 53.2987 156.59 53.2987 156.59C53.2987 156.59 53.1887 151.8 57.5487 148.74C58.8187 147.86 59.8887 146.78 60.9087 145.68C62.9787 146.99 65.1187 148.34 67.3187 149.7C64.2587 154.3 62.3387 158.77 62.3387 158.77C62.3387 158.77 55.6987 171.85 54.4887 174.89C53.2887 177.94 49.2687 190.58 49.2687 192.97C49.2687 195.38 53.1887 207.15 56.2387 208.88C59.2787 210.62 57.5487 201.47 57.5487 201.47L55.7987 196.25C55.7987 196.25 59.2887 180.12 62.7787 173.14C65.7187 167.26 71.7387 156.69 73.5587 153.51C75.3587 154.6 77.1687 155.7 79.0087 156.8C76.3387 162.59 73.2387 169.67 73.2387 171.41C73.2387 174.46 67.5687 198.86 67.5687 200.6C67.5687 202.34 68.4387 218.47 76.2887 221.96C84.1287 225.44 74.5387 214.11 74.5387 208.88C74.5387 203.65 74.9687 191.45 78.0287 184.47C81.0787 177.5 83.2587 175.76 83.2587 171.84C83.2587 167.92 84.9987 162.69 86.7387 161.38C93.3987 165.3 100.159 169.17 106.699 172.83C106.639 185.65 106.649 203.67 107.219 205.39C108.079 208.01 120.289 217.6 120.289 217.6C120.289 217.6 114.629 207.15 113.749 203.22C113.169 200.63 112.399 185.62 111.949 175.77C127.339 184.27 140.829 191.2 147.769 193.93C149.519 198.69 152.309 203.03 156.449 205.4C156.449 205.4 155.579 201.92 155.139 196.69L155.119 196.47C177.089 203.55 226.659 217.25 235.079 219.44C240.049 220.75 254.309 221.66 266.219 222.21ZM198.449 142.63C197.419 142.82 191.489 145.21 186.059 147.83C188.319 143.48 191.199 138.19 192.199 137.43C193.379 136.55 196.909 135.28 199.099 134.54C199.739 136.51 200.109 138.31 200.129 139.67C200.129 140.83 199.939 142.2 198.449 142.63ZM166.699 118.29L166.899 117.64L167.569 117.54C167.609 117.53 170.569 117.09 174.539 117.09C179.979 117.11 187.329 117.84 191.679 122.11C191.949 122.39 192.199 122.7 192.459 122.99C188.879 126.11 180.879 133.15 173.549 140.15C173.219 139.52 173.039 139.17 173.039 139.17L169.549 133.95V130.46L167.379 127.84L163.519 123.99C164.179 123.16 164.759 122.33 165.199 121.57C166.279 119.7 166.699 118.31 166.699 118.29ZM56.7387 134.1C55.8387 133.07 54.8787 131.81 53.9287 130.4C54.2687 130.28 54.5787 130.13 54.9387 130.02C61.9087 127.84 71.9287 124.8 71.9287 124.8L80.7287 123.54C81.4387 123.99 82.1687 124.44 82.9087 124.89C80.9487 125.11 76.5387 125.83 68.8887 128.29C64.2187 129.78 60.0387 131.91 56.7387 134.1ZM48.8587 117.72C48.8387 115.81 49.5087 113.93 51.2087 112.83C54.1087 110.92 55.9387 109.46 58.4387 109.43C60.5987 109.45 62.6887 110.56 65.8587 112.85C67.4687 114.04 70.1387 116.15 73.5387 118.62L70.1887 118.69L56.6887 118.26C56.6887 118.26 53.4287 118.94 49.0987 119.8C48.9687 119.09 48.8687 118.39 48.8587 117.72ZM60.5187 137.31C64.9487 134.79 69.7587 133.08 69.7587 133.08C69.7587 133.08 75.8687 130.46 78.0387 130.46C79.8387 130.46 88.5887 129.86 91.5687 129.66C92.5587 130.14 93.5587 130.58 94.5687 131.02C91.2387 131.48 79.4687 133.08 77.5987 133.08C75.4187 133.08 69.7587 133.95 64.5187 137.43C63.8987 137.84 63.2787 138.29 62.6487 138.74C61.8687 138.22 61.1387 137.74 60.5187 137.31ZM65.7887 140.74C66.7187 140.04 67.7187 139.49 68.8887 139.17C73.6787 137.86 77.5987 136.12 81.0887 136.12H89.8087C91.8187 136.12 97.6587 133.5 97.6587 133.5L100.329 133.19C102.749 133.98 105.199 134.61 107.669 135.03C107.239 135.21 106.099 135.53 103.319 136.12C97.2187 137.42 91.5487 138.3 89.3687 138.3C87.1887 138.3 81.5187 136.99 74.5487 141.78C73.5287 142.49 72.5387 143.36 71.5987 144.33C69.4487 143.03 67.4987 141.82 65.7887 140.74ZM78.7887 148.65L80.2087 147.45C80.2087 147.45 102.879 143.1 106.359 142.23C109.849 141.36 110.709 139.61 111.579 136.13L111.829 135.52C112.619 135.57 113.399 135.64 114.189 135.64C115.599 135.64 117.009 135.53 118.419 135.34C118.139 136.8 117.349 138.78 115.069 140.04C111.149 142.22 96.1087 148.32 92.9487 148.32C89.7887 148.32 82.8187 148.75 82.8187 148.75C82.8187 148.75 82.4887 149.42 81.9587 150.52C80.8887 149.89 79.8187 149.26 78.7887 148.65ZM93.6087 157.26C97.3287 155.11 101.129 152.96 101.129 152.96C101.129 152.96 113.329 146.58 119.439 146.15C119.439 146.15 125.549 145.72 127.279 142.66C128.739 140.11 129.889 135.16 130.229 133.58C131.269 133.43 132.279 133.28 133.269 133.14C133.479 136.3 133.599 140.79 132.619 141.35C131.089 142.22 112.469 152.46 109.859 154.09C107.239 155.73 106.799 157.91 106.799 160.09C106.799 160.49 106.789 162.18 106.769 164.67C102.209 162.14 97.8087 159.65 93.6087 157.26ZM111.599 167.35L111.589 167.07L112.899 163.14C112.899 163.14 128.589 150.94 131.849 149.2C135.119 147.45 138.609 150.07 137.299 159.65C135.989 169.24 135.119 168.81 135.119 168.81V170.98C135.119 170.98 141.659 166.62 142.089 164.44C142.519 162.26 141.649 154.08 141.649 154.08L142.519 151.36C142.519 151.36 146.439 169.66 145.579 177.51C145.329 179.72 145.379 182.48 145.749 185.42C134.499 179.74 122.739 173.48 111.599 167.35Z" fill="white"/>
<path d="M270.528 220.78C270.528 220.78 285.198 223.17 286.518 223.26C287.848 223.35 289.528 223.79 287.408 224.41C285.288 225.03 274.418 227.41 262.938 226.27C251.458 225.12 235.818 222.3 234.848 221.14C233.878 220 241.388 218.76 241.388 218.76L260.118 220.79H270.528" fill="white"/>
<path d="M241.399 222.81C241.399 222.81 167.089 205.84 155.959 198.78C144.829 191.71 199.579 207.81 199.579 207.81L244.149 220.37L241.399 222.81Z" fill="white"/>
<path d="M239.739 222.81C239.739 222.81 169.909 208.49 155.419 198.78C140.929 189.06 211.149 211.49 211.149 211.49L240.229 220.86L239.739 222.81Z" fill="white"/>
<path d="M541.318 192.25C541.318 195.74 542.308 198.36 544.278 200.1C546.248 201.85 549.218 202.72 553.178 202.72H554.508V200.32H552.708C549.648 200.32 547.418 199.65 546.018 198.33C544.608 197 543.908 194.9 543.908 192V175.22H554.508V172.74H543.908V164.24H541.308V192.25M512.108 184.96C512.108 181.87 513.008 179.36 514.788 177.43C516.568 175.51 518.888 174.55 521.738 174.55C524.588 174.55 526.908 175.5 528.678 177.43C530.468 179.35 531.368 181.86 531.368 184.96V202.72H533.928V185.77C533.928 181.61 532.818 178.31 530.598 175.86C528.388 173.42 525.438 172.19 521.728 172.19C518.028 172.19 515.068 173.42 512.858 175.86C510.648 178.31 509.538 181.61 509.538 185.77V202.72H512.088V184.96H512.108ZM502.168 202.71V189.47C502.168 187.27 501.998 185.39 501.678 183.81C501.338 182.22 500.818 180.83 500.098 179.64C498.638 177.25 496.768 175.4 494.518 174.12C492.258 172.83 489.788 172.19 487.068 172.19C482.728 172.19 479.138 173.66 476.298 176.6C473.458 179.53 472.038 183.25 472.038 187.75C472.038 189.83 472.398 191.81 473.118 193.68C473.838 195.55 474.888 197.23 476.278 198.72C477.668 200.21 479.278 201.34 481.148 202.12C483.008 202.89 485.018 203.28 487.198 203.28C489.158 203.28 491.008 202.95 492.738 202.28C494.468 201.61 496.068 200.6 497.558 199.23V195.84C496.068 197.5 494.468 198.76 492.748 199.59C491.038 200.42 489.188 200.84 487.198 200.84C483.598 200.84 480.628 199.6 478.278 197.12C475.928 194.64 474.758 191.5 474.758 187.7C474.758 183.95 475.948 180.82 478.328 178.31C480.708 175.82 483.658 174.57 487.198 174.57C490.958 174.57 493.968 175.89 496.208 178.54C498.448 181.2 499.568 184.77 499.568 189.29V202.73H502.168V202.71ZM458.028 202.71V186.85C458.028 183.44 458.978 180.65 460.888 178.46C462.788 176.27 465.208 175.18 468.138 175.18C468.468 175.18 469.118 175.21 470.088 175.3H470.278V172.76C469.848 172.7 469.488 172.66 469.218 172.64L468.508 172.62C466.258 172.62 464.248 173.12 462.478 174.12C460.708 175.13 459.228 176.62 458.028 178.61V172.73H455.468V202.7H458.028V202.71ZM425.308 178.36C427.728 175.82 430.668 174.56 434.138 174.56C437.588 174.56 440.508 175.82 442.918 178.35C445.308 180.88 446.508 183.99 446.508 187.69C446.508 191.34 445.308 194.45 442.918 197C440.508 199.55 437.588 200.83 434.138 200.83C430.668 200.83 427.728 199.55 425.308 197.02C422.898 194.48 421.698 191.37 421.698 187.69C421.698 184.01 422.898 180.9 425.308 178.36ZM420.128 193.66C420.888 195.54 422.008 197.24 423.468 198.77C424.898 200.24 426.528 201.36 428.358 202.12C430.178 202.88 432.118 203.26 434.138 203.26C436.158 203.26 438.088 202.88 439.918 202.12C441.748 201.35 443.368 200.24 444.798 198.77C446.248 197.28 447.348 195.6 448.098 193.72C448.858 191.84 449.238 189.84 449.238 187.74C449.238 185.62 448.858 183.6 448.098 181.73C447.348 179.85 446.248 178.17 444.798 176.68C443.368 175.24 441.748 174.12 439.918 173.35C438.088 172.58 436.158 172.19 434.138 172.19C432.118 172.19 430.178 172.59 428.358 173.35C426.528 174.12 424.898 175.24 423.468 176.68C422.008 178.24 420.888 179.94 420.128 181.81C419.368 183.68 418.978 185.65 418.978 187.74C418.978 189.8 419.368 191.78 420.128 193.66ZM402.018 192.25C402.018 195.74 402.998 198.36 404.978 200.1C406.948 201.85 409.918 202.72 413.878 202.72H415.208V200.32H413.418C410.358 200.32 408.128 199.65 406.728 198.33C405.318 197 404.618 194.9 404.618 192V175.22H415.208V172.74H404.618V164.24H402.018V192.25ZM373.278 202.71H384.378C388.348 202.71 391.288 202.08 393.198 200.81C395.108 199.55 396.068 197.62 396.068 195.01C396.068 193.05 395.388 191.37 394.028 189.99C392.678 188.6 390.688 187.55 388.068 186.82L382.028 185.12C379.918 184.52 378.378 183.8 377.408 182.95C376.428 182.1 375.948 181.07 375.948 179.84C375.948 178.31 376.438 177.15 377.448 176.34C378.458 175.53 379.918 175.13 381.848 175.13H393.828V172.73H382.808C379.768 172.73 377.438 173.33 375.798 174.55C374.168 175.75 373.358 177.48 373.358 179.73C373.358 181.63 373.968 183.21 375.178 184.45C376.408 185.7 378.278 186.67 380.828 187.38L386.628 188.99C389.028 189.63 390.768 190.45 391.858 191.44C392.938 192.43 393.478 193.68 393.478 195.19C393.478 196.77 392.848 197.99 391.598 198.88C390.328 199.77 388.558 200.21 386.288 200.21H373.298V202.71H373.278ZM366.458 188.1C366.198 191.89 364.928 194.95 362.638 197.3C360.338 199.65 357.488 200.83 354.078 200.83C350.598 200.83 347.668 199.55 345.258 197.02C342.848 194.48 341.648 191.36 341.648 187.68C341.648 183.98 342.858 180.86 345.288 178.3C347.718 175.75 350.688 174.48 354.198 174.48C356.108 174.48 357.838 174.88 359.408 175.69C360.978 176.49 362.338 177.67 363.478 179.22L344.928 191.61L346.148 193.63L367.048 179.68C365.568 177.2 363.738 175.34 361.578 174.08C359.418 172.82 356.988 172.19 354.278 172.19C352.168 172.19 350.198 172.58 348.358 173.34C346.518 174.1 344.878 175.21 343.428 176.68C341.968 178.19 340.848 179.89 340.078 181.76C339.308 183.64 338.928 185.63 338.928 187.74C338.928 189.82 339.308 191.82 340.078 193.7C340.848 195.59 341.958 197.27 343.428 198.76C344.858 200.23 346.478 201.35 348.318 202.11C350.148 202.87 352.068 203.25 354.088 203.25C358.238 203.25 361.738 201.83 364.558 199.01C367.388 196.18 368.938 192.53 369.178 188.09H366.458V188.1ZM324.918 202.71V186.85C324.918 183.44 325.868 180.65 327.768 178.46C329.678 176.27 332.098 175.18 335.028 175.18C335.358 175.18 336.008 175.21 336.988 175.3H337.178V172.76C336.738 172.7 336.378 172.66 336.118 172.64L335.398 172.62C333.138 172.62 331.138 173.12 329.368 174.12C327.608 175.13 326.108 176.62 324.918 178.61V172.73H322.358V202.7H324.918V202.71Z" fill="white"/>
<path d="M572.818 186.05H560.608V188.61H572.818V186.05Z" fill="white"/>
<path d="M692.219 218.38L697.219 209.16L702.209 218.38L712.339 220.2L705.489 228.01L706.839 238.2L697.219 233.75L687.949 238.2L689.219 228.01L681.849 220.09L692.219 218.38Z" fill="white"/>
<path d="M658.179 218.38L663.169 209.16L668.159 218.38L678.289 220.2L671.449 228.01L672.799 238.2L663.169 233.75L653.899 238.2L655.179 228.01L647.799 220.09L658.179 218.38Z" fill="white"/>
<path d="M624.158 218.38L629.148 209.16L634.138 218.38L644.278 220.2L637.428 228.01L638.778 238.2L629.148 233.75L619.888 238.2L621.168 228.01L613.778 220.09L624.158 218.38Z" fill="white"/>
<path d="M590.379 218.38L595.369 209.16L600.359 218.38L610.489 220.2L603.639 228.01L604.989 238.2L595.369 233.75L586.099 238.2L587.379 228.01L579.999 220.09L590.379 218.38Z" fill="white"/>
<path d="M709.449 157.32H706.839V202.12H709.449V157.32ZM697.969 187.37C697.719 191.19 696.439 194.29 694.119 196.66C691.799 199.03 688.919 200.22 685.479 200.22C681.969 200.22 678.999 198.94 676.579 196.37C674.149 193.8 672.929 190.65 672.929 186.94C672.929 183.2 674.159 180.04 676.609 177.46C679.059 174.88 682.059 173.59 685.609 173.59C687.529 173.59 689.279 174 690.869 174.81C692.459 175.63 693.829 176.82 694.969 178.38L676.259 190.92L677.479 192.95L698.579 178.85C697.069 176.34 695.229 174.46 693.049 173.18C690.869 171.91 688.409 171.27 685.669 171.27C683.539 171.27 681.549 171.66 679.699 172.43C677.839 173.2 676.179 174.33 674.719 175.81C673.239 177.33 672.109 179.05 671.339 180.94C670.569 182.84 670.179 184.86 670.179 186.98C670.179 189.09 670.569 191.1 671.339 193.01C672.109 194.92 673.239 196.63 674.719 198.13C676.159 199.61 677.799 200.74 679.649 201.51C681.499 202.28 683.439 202.67 685.489 202.67C689.679 202.67 693.209 201.24 696.069 198.38C698.929 195.52 700.479 191.85 700.729 187.37H697.969ZM653.039 191.54C653.039 195.07 654.029 197.72 656.019 199.48C657.999 201.24 660.999 202.13 664.989 202.13H666.329V199.67H664.519C661.439 199.67 659.189 199 657.769 197.67C656.359 196.34 655.639 194.21 655.639 191.3V174.39H666.319V171.88H655.639V163.3H653.029V191.54H653.039ZM622.999 177.48C625.429 174.91 628.399 173.62 631.909 173.62C635.389 173.62 638.339 174.9 640.759 177.46C643.179 180.02 644.389 183.17 644.389 186.91C644.389 190.61 643.179 193.75 640.759 196.33C638.339 198.91 635.389 200.2 631.909 200.2C628.399 200.2 625.429 198.92 622.999 196.34C620.569 193.77 619.359 190.62 619.359 186.9C619.359 183.2 620.569 180.06 622.999 177.48ZM617.749 192.97C618.519 194.87 619.649 196.59 621.129 198.14C622.569 199.62 624.219 200.75 626.059 201.52C627.899 202.29 629.849 202.68 631.899 202.68C633.939 202.68 635.889 202.29 637.729 201.52C639.579 200.74 641.219 199.62 642.659 198.14C644.119 196.64 645.229 194.94 645.989 193.04C646.749 191.14 647.129 189.12 647.129 187C647.129 184.85 646.749 182.83 645.989 180.93C645.229 179.03 644.119 177.33 642.659 175.83C641.219 174.37 639.579 173.25 637.729 172.46C635.889 171.67 633.939 171.29 631.899 171.29C629.849 171.29 627.899 171.68 626.059 172.46C624.209 173.25 622.569 174.37 621.129 175.83C619.649 177.39 618.519 179.12 617.749 181.01C616.979 182.9 616.599 184.9 616.599 187.01C616.599 189.08 616.979 191.07 617.749 192.97ZM588.779 202.13V185.66C588.779 182.17 589.749 179.32 591.689 177.08C593.629 174.85 596.109 173.73 599.119 173.73C601.789 173.73 603.989 174.7 605.709 176.64C607.429 178.58 608.299 181.1 608.299 184.19V202.13H610.859V184.69C610.859 180.54 609.799 177.25 607.679 174.84C605.559 172.43 602.709 171.22 599.119 171.22C596.969 171.22 594.999 171.74 593.219 172.79C591.439 173.83 589.959 175.32 588.789 177.24V157.33H586.229V202.13H588.779Z" fill="white"/>
</svg>
