<svg width="797" height="247" viewBox="0 0 797 247" fill="none" xmlns="http://www.w3.org/2000/svg">
<g clip-path="url(#clip0_2113_1108)">
<path d="M291.49 146.93H263.38L258.64 136.77H230.7L226.12 146.93H218L250.68 75.0898H257.68L291.48 146.93M255.11 129.35L244.48 106.61L234.11 129.35H255.11Z" fill="white"/>
<path d="M361.85 132.71C361.776 137.03 360.74 140.467 358.74 143.02C357.239 144.809 355.289 146.165 353.09 146.95C350.543 147.955 347.827 148.464 345.09 148.45C340.928 148.584 336.85 147.261 333.56 144.71C330.44 142.217 327.23 137.85 323.93 131.61H322.3C321.49 131.69 320.95 131.72 320.67 131.72V146.88H295.27V75.09H326C330.744 75.0011 335.487 75.3729 340.16 76.2C343.618 76.8433 346.931 78.107 349.94 79.93C357.98 84.87 362 91.7967 362 100.71C362.074 103.738 361.549 106.751 360.456 109.575C359.363 112.4 357.723 114.981 355.63 117.17C351.39 121.63 344.76 125.373 335.74 128.4C337.533 130.716 339.836 132.588 342.47 133.87C345.057 135.209 347.926 135.915 350.84 135.93C354.714 135.771 358.491 134.665 361.84 132.71M320.63 124.24H321.73C323.603 124.26 325.463 123.92 327.21 123.24C328.808 122.644 330.248 121.69 331.42 120.45C332.836 118.727 333.762 116.654 334.1 114.45C334.69 110.539 334.938 106.584 334.84 102.63C334.907 99.2458 334.74 95.8611 334.34 92.5C334.098 90.6165 333.443 88.8098 332.42 87.21C330.25 84.06 326.77 82.47 322 82.47C321.75 82.47 321.3 82.47 320.63 82.53V124.24Z" fill="white"/>
<path d="M436.43 146.93H408.33L403.59 136.77H375.64L371.06 146.93H363L395.68 75.0898H402.68L436.47 146.93M400.1 129.35L389.47 106.61L379.09 129.35H400.1Z" fill="white"/>
<path d="M498 142.55C492.38 146.476 484.503 148.443 474.37 148.45C462.37 148.45 452.667 145.31 445.26 139.03C436.98 132.05 432.837 122.663 432.83 110.87C432.83 101.996 435.077 94.3865 439.57 88.0398C446.383 78.3465 456.84 73.5031 470.94 73.5098C475.814 73.3733 480.675 74.0769 485.31 75.5898C489.347 77.105 492.997 79.4956 496 82.5898C494.173 85.3898 491.277 86.9998 487.31 87.4198C486.458 85.3646 485.078 83.5709 483.31 82.2198C481.442 81.1661 479.311 80.6699 477.17 80.7898C471.03 80.7898 466.293 83.2131 462.96 88.0598C461.658 90.0972 460.856 92.4136 460.62 94.8198C460.129 99.4059 459.929 104.018 460.02 108.63C459.914 115.023 460.131 121.418 460.67 127.79C461.11 131.54 461.95 134.34 463.18 136.16C464.073 137.559 465.313 138.703 466.78 139.48C468.635 140.302 470.617 140.799 472.64 140.95V94.9998H498V142.52" fill="white"/>
<path d="M540.109 73.5598C544.798 73.4947 549.445 74.444 553.733 76.3426C558.02 78.2412 561.846 81.0443 564.949 84.5598C571.509 91.6798 574.789 100.82 574.789 111.98C574.78 117.635 573.542 123.221 571.159 128.35C568.124 135.194 562.905 140.838 556.319 144.4C551.33 147.058 545.763 148.449 540.109 148.449C534.456 148.449 528.889 147.058 523.899 144.4C517.357 140.885 512.13 135.345 508.999 128.61C506.22 122.96 504.776 116.746 504.779 110.45C504.779 99.5431 508.486 90.4731 515.899 83.2398C522.379 76.8931 530.446 73.6664 540.099 73.5598M547.619 109.66V100.56C547.619 92.3198 547.166 87.1431 546.259 85.0298C545.771 83.7413 544.884 82.6426 543.727 81.8942C542.57 81.1458 541.205 80.7868 539.829 80.8698C536.496 80.8698 534.199 82.3264 532.939 85.2398C532.498 86.3228 532.241 87.472 532.179 88.6398C532.093 89.9198 532.016 93.7364 531.949 100.09V109.98V120.82C531.949 126.93 532.039 130.59 532.109 131.82C532.18 133.043 532.357 134.258 532.639 135.45C532.969 137.079 533.861 138.54 535.159 139.578C536.457 140.616 538.078 141.165 539.739 141.13C540.728 141.198 541.72 141.048 542.645 140.69C543.569 140.333 544.404 139.776 545.089 139.06C546.303 137.666 547.046 135.446 547.319 132.4C547.466 131.42 547.569 123.84 547.629 109.66H547.619Z" fill="white"/>
<path d="M633.74 83.3502C631.661 86.2282 628.645 88.2929 625.21 89.1902C623.535 86.549 621.251 84.3475 618.55 82.7702C615.777 81.4174 612.714 80.7651 609.63 80.8702C607.601 80.7594 605.58 81.1982 603.78 82.1402C603.088 82.4787 602.501 83.0009 602.085 83.6499C601.669 84.2988 601.439 85.0495 601.42 85.8202C601.42 87.4702 602.47 88.8202 604.58 89.8202C607.121 90.7585 609.72 91.5334 612.36 92.1402C617.076 93.3475 621.718 94.8301 626.26 96.5802C629.153 97.6587 631.854 99.1949 634.26 101.13C639.98 106.05 642.837 112.63 642.83 120.87C642.83 129.364 640.043 136.03 634.47 140.87C631.461 143.475 627.953 145.442 624.16 146.65C619.753 147.964 615.168 148.588 610.57 148.5C601.13 148.5 593.537 146.447 587.79 142.34C582.043 138.234 579.167 133.27 579.16 127.45C579.16 122.85 581.16 118.57 585.16 114.61C587.256 115.258 589.27 116.147 591.16 117.26C593.292 118.476 595.302 119.896 597.16 121.5C595.226 122.488 593.45 123.759 591.89 125.27C590.971 126.346 590.486 127.726 590.53 129.14C590.53 132.39 592.21 135.22 595.53 137.6C598.85 139.98 603.53 141.18 609.06 141.18C614.81 141.18 619.36 140.24 622.68 138.34C624.151 137.507 625.392 136.322 626.29 134.89C627.172 133.598 627.655 132.075 627.68 130.51C627.68 127.21 625.92 124.51 622.37 122.4C620.45 121.23 616.45 119.8 610.37 118.08C604.157 116.287 599.747 114.857 597.14 113.79C594.651 112.802 592.319 111.454 590.22 109.79C584.96 105.59 582.32 100.28 582.32 93.9002C582.32 86.7402 584.884 81.4769 590.01 78.1102C594.57 75.1435 600.744 73.6535 608.53 73.6402C613.825 73.5083 619.098 74.3628 624.08 76.1602C627.943 77.5094 631.275 80.0563 633.59 83.4302" fill="white"/>
<path d="M687.11 146.93H661.74V82.2898H641.91V75.0898H706.95V82.2898H687.11V146.93Z" fill="white"/>
<path d="M772.29 146.93H744.2L739.45 136.77H711.51L706.94 146.93H698.83L731.51 75.0898H738.51L772.29 146.93ZM735.93 129.35L725.3 106.61L714.94 129.35H735.93Z" fill="white"/>
<path d="M274.159 226.68C249.339 222.45 204.249 213.53 175.219 200.31C170.929 198.36 166.399 196.19 161.739 193.91C161.109 191.54 160.499 189.83 160.499 189.83L159.629 161.07C159.629 161.07 157.879 158.9 157.879 151.92C157.879 144.94 160.059 141.92 161.799 141.03C163.539 140.14 163.999 135.8 163.999 135.8C163.999 135.8 168.359 140.16 171.839 140.16C172.779 140.16 175.129 143.32 178.049 147.96C172.109 153.81 167.249 159.15 166.609 161.51C164.869 168.05 167.919 168.51 180.609 168.51C181.693 168.512 182.774 168.412 183.839 168.21C183.649 171.64 183.499 175.39 183.499 178.62C183.43 180.986 183.584 183.353 183.959 185.69L184.039 186.01C186.62 184.913 189.016 183.422 191.139 181.59C192.472 180.508 193.744 179.353 194.949 178.13C196.255 180.522 197.43 182.982 198.469 185.5C198.909 187.69 198.909 197.7 200.209 200.32C201.509 202.94 206.319 196.83 203.709 189.42C202.889 187.11 200.369 181.76 197.279 175.52C198.485 174.073 199.528 172.496 200.389 170.82C204.759 162.26 209.919 150.39 215.569 147.74C218.939 146.15 220.909 144.84 221.019 138.95C220.94 135.946 220.541 132.96 219.829 130.04C216.739 116.15 213.779 97.4302 193.529 93.6402C172.599 89.7002 154.949 90.0002 137.149 87.5402H136.969L136.819 87.4702L134.489 86.2902C132.919 85.8602 109.969 79.5402 103.369 77.1502C97.5757 75.2414 91.6798 73.6589 85.7091 72.4102C85.1191 72.9002 83.8791 74.0102 83.9991 74.7902C83.9991 75.3102 84.4191 76.3902 87.6191 77.5602L87.9591 77.6802L88.1591 77.9702C88.7026 78.9823 88.9617 80.1227 88.9091 81.2702C88.8539 83.2135 88.4262 85.1282 87.6491 86.9102C86.0891 90.9802 84.3291 93.8202 80.1691 93.7502C78.535 93.6934 76.9135 93.4416 75.3391 93.0002C71.5091 92.0002 63.8791 88.8702 56.9091 84.7202C49.9391 80.5702 43.6391 75.5902 42.8191 70.1302C42.2191 65.4202 41.1691 63.3302 41.1291 61.1302C41.0891 58.9302 42.5291 57.4102 45.6791 55.0702C52.5291 50.0002 91.0591 32.4002 136.999 22.5702C172.649 15.0002 220.719 7.13023 250.509 4.49023H247.449C224.449 4.49023 189.449 6.34023 153.319 14.3002C81.4691 30.0902 44.1191 46.1202 37.8991 51.8702C34.3791 55.0802 28.8191 60.3902 28.8291 68.5002C28.8291 75.8102 33.3391 85.8502 48.8791 99.0902L54.6691 104.38L53.3491 105.1C50.8436 106.554 48.4975 108.267 46.3491 110.21C42.8491 113.43 39.5091 117.88 39.5191 122.75C39.5338 124.346 39.8741 125.921 40.5191 127.38C39.1044 127.651 37.6755 127.842 36.2391 127.95C33.2391 127.95 33.2391 124.95 30.1291 128.82C27.0191 132.69 22.2391 144.51 20.5491 145.82C18.8591 147.13 16.6291 148.43 12.6991 154.53C8.76912 160.63 3.55912 179.37 14.0091 185.04C13.6051 179.939 13.9386 174.806 14.9991 169.8C16.6791 162.39 17.1691 158.03 19.7891 156.28C22.4091 154.53 29.7891 141.47 31.1191 138.42C32.4491 135.37 37.2191 131.87 41.5691 131.87H43.5691C44.798 133.254 46.1539 134.52 47.6191 135.65L48.5291 136.34C47.6291 138.68 46.5291 141.64 45.5291 144.51C43.3491 150.62 38.9891 159.77 39.4191 163.26C39.8491 166.75 43.7891 178.5 47.2691 181.12C50.7491 183.74 52.0691 183.74 52.0691 183.74C52.0691 183.74 47.2691 173.28 46.8291 169.36C46.481 166.176 46.3373 162.973 46.3991 159.77C46.3991 156.28 49.0091 148.44 50.7491 144.95C51.6072 143.251 52.6829 141.671 53.9491 140.25C55.4691 141.31 57.0958 142.42 58.8291 143.58C58.0942 144.325 57.5667 145.249 57.2991 146.26C57.0091 148.26 59.1991 147.43 62.0991 145.75L65.2991 147.84C63.0991 150.11 61.5191 152.47 61.2991 154.54C61.0511 156.71 61.0511 158.901 61.2991 161.07C61.3526 159.524 61.7643 158.011 62.5018 156.65C63.2393 155.29 64.2824 154.119 65.5491 153.23C66.7774 152.332 67.9041 151.303 68.9091 150.16C70.9825 151.494 73.1191 152.827 75.3191 154.16C73.4097 157.047 71.7375 160.083 70.3191 163.24C70.3191 163.24 63.6791 176.31 62.4691 179.36C61.2591 182.41 57.2491 195.04 57.2491 197.44C57.2491 199.84 61.1691 211.61 64.2491 213.35C67.3291 215.09 65.4991 206 65.4991 206L63.7491 200.78C63.7491 200.78 67.2291 184.65 70.7491 177.67C73.6891 171.8 79.7491 161.22 81.5291 158.04C83.3291 159.13 85.1391 160.23 86.9791 161.33C84.3091 167.12 81.2091 174.2 81.2091 175.94C81.2091 178.94 75.5391 203.39 75.5391 205.13C75.5391 206.87 76.4091 223 84.2591 226.49C92.1091 229.98 82.5191 218.64 82.5191 213.41C82.5191 208.18 82.9191 195.94 85.9991 189C89.0791 182.06 91.2291 180.29 91.2291 176.37C91.2291 172.45 92.9691 167.22 94.7091 165.91C101.379 169.83 108.139 173.7 114.709 177.37C114.649 190.18 114.709 208.21 115.239 209.92C116.099 212.54 128.309 222.13 128.309 222.13C128.309 222.13 122.649 211.67 121.769 207.75C121.199 205.15 120.429 190.15 119.969 180.29C135.359 188.8 148.859 195.72 155.799 198.46C157.539 203.22 160.339 207.56 164.479 209.92C163.832 207.053 163.398 204.142 163.179 201.21V200.99C185.179 208.07 234.719 221.76 243.179 223.99C248.119 225.29 262.379 226.2 274.289 226.75M206.389 147.1C202.15 148.556 198.011 150.29 193.999 152.29C196.259 147.94 199.139 142.65 200.139 141.9C201.319 141.02 204.849 139.75 207.039 139.01C207.622 140.662 207.959 142.39 208.039 144.14C208.069 145.3 207.879 146.67 206.389 147.1ZM174.639 122.76L174.839 122.11L175.509 122.01C177.829 121.699 180.168 121.549 182.509 121.56C187.949 121.56 195.299 122.31 199.649 126.56C199.919 126.84 200.159 127.15 200.419 127.44C196.839 130.56 188.849 137.6 181.519 144.6L181.009 143.6L177.519 138.38V134.89L175.349 132.27L171.489 128.42C172.103 127.655 172.661 126.846 173.159 126C173.77 124.978 174.267 123.891 174.639 122.76ZM64.6391 138.57C63.6333 137.393 62.6983 136.158 61.8391 134.87C62.1691 134.75 62.4791 134.6 62.8391 134.49C69.8391 132.31 79.8391 129.27 79.8391 129.27L88.6691 128C89.3791 128.46 90.1091 128.91 90.8491 129.36C86.084 130.036 81.3954 131.171 76.8491 132.75C72.5478 134.131 68.4538 136.089 64.6791 138.57H64.6391ZM56.7991 122.19C56.7386 121.242 56.923 120.294 57.3346 119.438C57.7461 118.582 58.371 117.845 59.1491 117.3C62.0591 115.38 63.8891 113.93 66.3891 113.9C68.5491 113.9 70.6391 115.03 73.7991 117.32C75.4091 118.51 78.0791 120.62 81.4791 123.09L78.1291 123.16L64.6291 122.73C64.6291 122.73 61.3591 123.41 57.0391 124.27C56.9023 123.585 56.822 122.889 56.7991 122.19ZM68.4591 141.78C71.4263 140.136 74.5154 138.722 77.6991 137.55C77.6991 137.55 83.7991 134.93 85.9791 134.93C87.7791 134.93 96.5291 134.33 99.5091 134.13C100.509 134.6 101.509 135.05 102.509 135.49C99.1791 135.94 87.4091 137.55 85.5091 137.55C80.8399 137.812 76.3248 139.313 72.4291 141.9C71.8191 142.31 71.1891 142.75 70.5691 143.21C69.8091 142.69 69.0791 142.21 68.4591 141.78ZM73.7291 145.21C74.6529 144.494 75.7052 143.961 76.8291 143.64C81.6191 142.34 85.5391 140.64 89.0291 140.64H97.7491C99.7491 140.64 105.589 138.03 105.589 138.03L108.269 137.71C110.666 138.507 113.12 139.122 115.609 139.55C114.182 140.012 112.726 140.376 111.249 140.64C106.665 141.724 102.005 142.456 97.3091 142.83C95.1291 142.83 89.4591 141.52 82.4891 146.31C81.4222 147.058 80.4338 147.913 79.5391 148.86C77.3891 147.5 75.4391 146.29 73.7291 145.21ZM86.7291 153.12L88.1491 151.92C88.1491 151.92 110.819 147.57 114.309 146.7C117.799 145.83 118.659 144.08 119.529 140.59L119.779 139.98C120.569 140.04 121.359 140.11 122.139 140.11C123.554 140.1 124.967 140 126.369 139.81C126.2 140.795 125.812 141.729 125.231 142.543C124.651 143.357 123.895 144.029 123.019 144.51C119.099 146.7 104.019 152.8 100.899 152.8C97.7791 152.8 90.7691 153.23 90.7691 153.23C90.7691 153.23 90.4391 153.9 89.9191 154.99L86.7291 153.12ZM101.549 161.73C105.269 159.58 109.069 157.43 109.069 157.43C109.069 157.43 121.279 151.05 127.379 150.62C127.379 150.62 133.479 150.19 135.219 147.13C136.679 144.58 137.829 139.63 138.169 138.05L141.169 137.61C141.379 140.77 141.499 145.27 140.519 145.83C138.989 146.7 120.369 156.94 117.759 158.57C115.149 160.2 114.699 162.39 114.699 164.57C114.699 164.97 114.699 166.66 114.699 169.15C110.149 166.61 105.749 164.12 101.549 161.73ZM119.549 171.82V171.54L120.859 167.61C120.859 167.61 136.549 155.41 139.859 153.67C143.169 151.93 146.619 154.54 145.299 164.12C143.979 173.7 143.129 173.28 143.129 173.28V175.46C143.129 175.46 149.659 171.1 150.129 168.92C150.599 166.74 149.689 158.57 149.689 158.57L150.569 155.84C150.569 155.84 154.489 174.15 153.619 181.99C153.377 184.625 153.434 187.278 153.789 189.9C142.439 184.21 130.679 178 119.539 171.82H119.549Z" fill="white"/>
<path d="M278.469 225.25C278.469 225.25 293.139 227.64 294.469 227.73C295.799 227.82 297.469 228.25 295.359 228.87C287.359 230.819 279.093 231.447 270.889 230.73C259.409 229.58 243.769 226.73 242.799 225.6C241.829 224.47 249.329 223.22 249.329 223.22L268.059 225.22H278.479" fill="white"/>
<path d="M249.339 227.28C249.339 227.28 175.019 210.28 163.889 203.28C152.759 196.28 207.509 212.28 207.509 212.28L252.079 224.85L249.339 227.28Z" fill="white"/>
<path d="M247.68 227.28C247.68 227.28 177.86 212.96 163.36 203.28C148.86 193.6 219.09 216 219.09 216L248.17 225.37L247.68 227.32" fill="white"/>
<path d="M777.721 79.5496H780.611C781.145 79.5038 781.678 79.653 782.111 79.9696C782.262 80.1012 782.382 80.2643 782.463 80.4474C782.545 80.6306 782.585 80.8293 782.581 81.0296C782.585 81.3355 782.49 81.6346 782.31 81.8818C782.129 82.1289 781.874 82.3107 781.581 82.3996C781.164 82.5316 780.727 82.5892 780.291 82.5696H777.681V79.5696M777.681 87.7096V83.6196H779.091C779.317 83.5931 779.545 83.5931 779.771 83.6196L780.311 83.8596C780.553 84.0242 780.76 84.2349 780.921 84.4796C781.235 84.8809 781.529 85.2981 781.801 85.7296L783.011 87.6396H784.521L783.001 85.1996C782.719 84.7595 782.383 84.3564 782.001 83.9996C781.779 83.815 781.533 83.6603 781.271 83.5396C781.997 83.4903 782.683 83.1898 783.211 82.6896C783.632 82.2525 783.862 81.6663 783.851 81.0596C783.85 80.5739 783.718 80.0974 783.471 79.6796C783.241 79.2888 782.89 78.9834 782.471 78.8096C781.87 78.6203 781.241 78.5358 780.611 78.5596H776.551V87.7096H777.681Z" fill="white"/>
<path d="M771.939 83.1098C771.939 81.4089 772.444 79.7461 773.389 78.3319C774.334 76.9176 775.677 75.8153 777.248 75.1644C778.82 74.5135 780.549 74.3432 782.217 74.675C783.885 75.0068 785.418 75.8259 786.621 77.0287C787.823 78.2314 788.642 79.7638 788.974 81.432C789.306 83.1002 789.136 84.8294 788.485 86.4008C787.834 87.9723 786.732 89.3154 785.317 90.2604C783.903 91.2054 782.24 91.7098 780.539 91.7098V90.8198C782.064 90.8198 783.555 90.3676 784.823 89.5204C786.091 88.6732 787.079 87.4691 787.663 86.0603C788.246 84.6514 788.399 83.1012 788.101 81.6056C787.804 80.11 787.07 78.7362 785.991 77.658C784.913 76.5797 783.539 75.8454 782.044 75.5479C780.548 75.2504 778.998 75.4031 777.589 75.9867C776.18 76.5702 774.976 77.5584 774.129 78.8263C773.282 80.0942 772.829 81.5849 772.829 83.1098C772.832 85.1538 773.645 87.1133 775.091 88.5586C776.536 90.004 778.495 90.8171 780.539 90.8198V91.7098C778.259 91.7098 776.071 90.8037 774.458 89.1909C772.846 87.5781 771.939 85.3906 771.939 83.1098Z" fill="white"/>
<path d="M549.26 196.72C549.26 200.21 550.26 202.82 552.26 204.57C554.26 206.32 557.2 207.18 561.16 207.18H562.49V204.78H560.69C557.69 204.78 555.4 204.11 554 202.78C552.6 201.45 551.89 199.35 551.89 196.45V179.69H562.49V177.21H551.89V168.71H549.29V196.71M520.08 189.42C519.956 186.656 520.918 183.954 522.76 181.89C523.671 180.977 524.754 180.252 525.945 179.757C527.137 179.263 528.415 179.008 529.705 179.008C530.995 179.008 532.273 179.263 533.464 179.757C534.656 180.252 535.739 180.977 536.65 181.89C538.495 183.953 539.461 186.655 539.34 189.42V207.17H541.9V190.24C541.9 186.08 540.793 182.777 538.58 180.33C537.416 179.163 536.033 178.238 534.511 177.607C532.989 176.975 531.358 176.65 529.71 176.65C528.062 176.65 526.43 176.975 524.908 177.607C523.386 178.238 522.004 179.163 520.84 180.33C518.633 182.777 517.53 186.08 517.53 190.24V207.18H520.08V189.42ZM510.14 207.17V193.94C510.169 192.042 510.005 190.145 509.65 188.28C509.338 186.804 508.78 185.391 508 184.1C506.645 181.815 504.727 179.915 502.43 178.58C500.159 177.294 497.59 176.629 494.98 176.65C492.977 176.594 490.984 176.957 489.129 177.717C487.274 178.476 485.599 179.615 484.21 181.06C482.803 182.546 481.706 184.297 480.983 186.211C480.261 188.126 479.926 190.165 480 192.21C479.994 194.236 480.36 196.246 481.08 198.14C481.809 199.993 482.885 201.69 484.25 203.14C485.609 204.608 487.271 205.765 489.12 206.53C491.023 207.313 493.063 207.707 495.12 207.69C497.013 207.705 498.892 207.366 500.66 206.69C502.439 205.998 504.073 204.981 505.48 203.69V200.3C504.137 201.852 502.503 203.126 500.67 204.05C498.941 204.889 497.042 205.316 495.12 205.3C493.454 205.349 491.797 205.043 490.259 204.401C488.721 203.76 487.337 202.798 486.2 201.58C483.916 198.981 482.657 195.64 482.657 192.18C482.657 188.72 483.916 185.379 486.2 182.78C487.328 181.562 488.703 180.598 490.232 179.952C491.761 179.305 493.41 178.991 495.07 179.03C496.776 178.962 498.475 179.288 500.036 179.981C501.596 180.675 502.977 181.718 504.07 183.03C506.31 185.69 507.44 189.26 507.44 193.78V207.21L510.14 207.17ZM466 207.17V191.32C465.876 188.27 466.892 185.282 468.85 182.94C469.737 181.884 470.85 181.041 472.106 180.473C473.363 179.906 474.731 179.628 476.11 179.66C476.44 179.66 477.11 179.66 478.06 179.78H478.25V177.24C477.81 177.18 477.46 177.14 477.19 177.12H476.48C474.382 177.09 472.314 177.611 470.48 178.63C468.63 179.713 467.096 181.261 466.03 183.12V177.24H463.47V207.24L466 207.17ZM433.28 182.82C434.411 181.62 435.776 180.664 437.29 180.01C438.804 179.357 440.436 179.019 442.085 179.019C443.734 179.019 445.366 179.357 446.88 180.01C448.394 180.664 449.759 181.62 450.89 182.82C453.2 185.377 454.478 188.699 454.478 192.145C454.478 195.59 453.2 198.913 450.89 201.47C449.784 202.697 448.428 203.674 446.914 204.334C445.4 204.995 443.762 205.324 442.11 205.3C440.452 205.325 438.809 204.998 437.286 204.341C435.764 203.685 434.399 202.713 433.28 201.49C430.958 198.94 429.67 195.614 429.67 192.165C429.67 188.716 430.958 185.39 433.28 182.84M428.1 198.14C428.878 200.04 430.011 201.775 431.44 203.25C432.826 204.687 434.49 205.826 436.33 206.6C440.033 208.12 444.187 208.12 447.89 206.6C449.727 205.826 451.388 204.686 452.77 203.25C454.194 201.802 455.315 200.085 456.07 198.2C457.579 194.342 457.579 190.058 456.07 186.2C455.309 184.332 454.188 182.633 452.77 181.2C451.379 179.779 449.72 178.647 447.89 177.87C446.061 177.098 444.095 176.7 442.11 176.7C440.124 176.7 438.159 177.098 436.33 177.87C434.497 178.647 432.835 179.779 431.44 181.2C430.017 182.687 428.885 184.427 428.1 186.33C426.567 190.131 426.567 194.379 428.1 198.18M410 196.72C410 200.21 411 202.82 413 204.57C415 206.32 417.94 207.18 421.9 207.18H423.23V204.78H421.44C418.38 204.78 416.14 204.11 414.75 202.78C413.36 201.45 412.64 199.35 412.64 196.45V179.69H423.23V177.21H412.56V168.71H410V196.72ZM381.26 207.18H392.36C396.36 207.18 399.27 206.56 401.18 205.28C402.126 204.653 402.89 203.788 403.394 202.771C403.898 201.754 404.124 200.622 404.05 199.49C404.066 198.565 403.898 197.647 403.555 196.788C403.211 195.929 402.7 195.148 402.05 194.49C400.362 192.928 398.293 191.838 396.05 191.33L390.05 189.62C388.371 189.237 386.792 188.501 385.42 187.46C384.959 187.084 384.59 186.61 384.339 186.071C384.087 185.533 383.961 184.944 383.97 184.35C383.929 183.691 384.042 183.031 384.3 182.423C384.559 181.816 384.956 181.277 385.46 180.85C386.747 179.959 388.298 179.532 389.86 179.64H401.86V177.24H390.86C387.86 177.24 385.49 177.84 383.86 179.05C383.056 179.646 382.413 180.432 381.987 181.338C381.561 182.244 381.366 183.241 381.42 184.24C381.391 185.109 381.537 185.974 381.849 186.785C382.162 187.596 382.635 188.336 383.24 188.96C384.834 190.414 386.783 191.425 388.89 191.89L394.68 193.51C396.586 193.915 398.375 194.749 399.91 195.95C400.435 196.421 400.851 197 401.131 197.647C401.411 198.295 401.547 198.995 401.53 199.7C401.558 200.424 401.4 201.144 401.071 201.79C400.742 202.436 400.253 202.987 399.65 203.39C398.062 204.377 396.206 204.846 394.34 204.73H381.34L381.26 207.18ZM374.44 192.57C374.338 195.996 372.982 199.266 370.63 201.76C369.525 202.909 368.194 203.816 366.721 204.424C365.247 205.031 363.663 205.326 362.07 205.29C360.412 205.317 358.768 204.991 357.245 204.334C355.723 203.677 354.358 202.704 353.24 201.48C350.907 198.923 349.614 195.586 349.614 192.125C349.614 188.664 350.907 185.327 353.24 182.77C354.373 181.54 355.754 180.563 357.291 179.905C358.828 179.247 360.488 178.921 362.16 178.95C363.964 178.927 365.748 179.339 367.36 180.15C368.979 180.984 370.375 182.195 371.43 183.68L352.88 196.07L354.1 198.07L375 184.15C373.689 181.844 371.805 179.915 369.53 178.55C367.312 177.272 364.79 176.616 362.23 176.65C360.199 176.635 358.185 177.03 356.31 177.81C354.457 178.578 352.78 179.714 351.38 181.15C349.239 183.357 347.784 186.137 347.19 189.154C346.595 192.171 346.887 195.295 348.03 198.15C348.796 200.044 349.936 201.765 351.38 203.21C352.76 204.649 354.421 205.789 356.26 206.56C358.092 207.321 360.057 207.708 362.04 207.7C363.982 207.742 365.912 207.388 367.712 206.659C369.512 205.93 371.145 204.842 372.51 203.46C375.377 200.536 377.028 196.634 377.13 192.54L374.44 192.57ZM332.9 207.18V191.32C332.776 188.27 333.792 185.282 335.75 182.94C336.637 181.884 337.75 181.041 339.006 180.473C340.263 179.906 341.631 179.628 343.01 179.66C343.34 179.66 344.01 179.66 345.01 179.78H345.2V177.24C344.76 177.18 344.4 177.14 344.14 177.12H343.42C341.322 177.09 339.254 177.611 337.42 178.63C335.572 179.716 334.039 181.263 332.97 183.12V177.24H330.42V207.24L332.9 207.18Z" fill="white"/>
<path d="M580.761 190.52H568.551V193.08H580.761V190.52Z" fill="white"/>
<path d="M700.159 222.85L705.159 213.63L710.149 222.85L720.279 224.67L713.429 232.48L714.779 242.67L705.159 238.22L695.879 242.67L697.159 232.48L689.789 224.56L700.159 222.85Z" fill="white"/>
<path d="M666.12 222.85L671.11 213.63L676.11 222.85L686.23 224.67L679.39 232.48L680.74 242.67L671.11 238.22L661.84 242.67L663.12 232.48L655.74 224.56L666.12 222.85Z" fill="white"/>
<path d="M632.101 222.85L637.091 213.63L642.091 222.85L652.221 224.67L645.371 232.48L646.721 242.67L637.091 238.22L627.831 242.67L629.111 232.48L621.721 224.56L632.101 222.85Z" fill="white"/>
<path d="M598.319 222.85L603.309 213.63L608.299 222.85L618.429 224.67L611.589 232.48L612.929 242.67L603.309 238.22L594.039 242.67L595.319 232.48L587.939 224.56L598.319 222.85Z" fill="white"/>
<path d="M717.389 161.79H714.779V206.6H717.389V161.79ZM705.909 191.84C705.812 195.305 704.441 198.612 702.059 201.13C700.947 202.29 699.605 203.206 698.119 203.819C696.634 204.432 695.036 204.729 693.429 204.69C691.755 204.716 690.095 204.385 688.559 203.719C687.023 203.053 685.646 202.069 684.519 200.83C682.156 198.249 680.844 194.875 680.844 191.375C680.844 187.875 682.156 184.501 684.519 181.92C685.659 180.674 687.051 179.684 688.603 179.017C690.155 178.35 691.831 178.02 693.519 178.05C695.345 178.03 697.149 178.448 698.779 179.27C700.406 180.128 701.81 181.354 702.879 182.85L684.199 195.39L685.419 197.39L706.519 183.29C705.186 180.963 703.283 179.012 700.989 177.62C698.746 176.332 696.196 175.672 693.609 175.71C691.552 175.693 689.512 176.087 687.609 176.87C685.731 177.646 684.03 178.796 682.609 180.25C680.444 182.486 678.972 185.301 678.372 188.355C677.772 191.409 678.07 194.572 679.229 197.46C680.006 199.374 681.155 201.114 682.609 202.58C684.007 204.029 685.684 205.179 687.539 205.96C689.39 206.73 691.376 207.121 693.379 207.11C695.346 207.164 697.303 206.815 699.129 206.084C700.956 205.353 702.613 204.256 703.999 202.86C706.892 199.918 708.558 195.985 708.659 191.86L705.909 191.84ZM660.999 196C660.999 199.53 661.999 202.17 663.999 203.94C665.999 205.71 668.999 206.59 672.999 206.59H674.349V204.13H672.529C669.449 204.13 667.203 203.463 665.789 202.13C664.376 200.797 663.666 198.673 663.659 195.76V178.85H674.349V176.34H663.589V167.77H660.999V196ZM630.999 181.94C632.139 180.727 633.514 179.76 635.041 179.099C636.569 178.438 638.215 178.097 639.879 178.097C641.544 178.097 643.19 178.438 644.717 179.099C646.245 179.76 647.62 180.727 648.759 181.94C651.096 184.529 652.389 187.893 652.389 191.38C652.389 194.868 651.096 198.231 648.759 200.82C647.646 202.059 646.28 203.045 644.753 203.713C643.227 204.38 641.575 204.713 639.909 204.69C638.235 204.716 636.575 204.385 635.039 203.719C633.503 203.053 632.126 202.069 630.999 200.83C628.657 198.244 627.359 194.879 627.359 191.39C627.359 187.901 628.657 184.536 630.999 181.95M625.749 197.44C626.537 199.363 627.684 201.117 629.129 202.61C630.528 204.053 632.202 205.199 634.052 205.983C635.902 206.766 637.89 207.169 639.899 207.169C641.909 207.169 643.897 206.766 645.747 205.983C647.597 205.199 649.271 204.053 650.669 202.61C652.104 201.141 653.235 199.405 653.999 197.5C655.532 193.609 655.532 189.281 653.999 185.39C653.24 183.482 652.108 181.745 650.669 180.28C649.266 178.844 647.59 177.701 645.739 176.92C643.893 176.14 641.909 175.739 639.904 175.739C637.9 175.739 635.916 176.14 634.069 176.92C632.216 177.701 630.537 178.843 629.129 180.28C627.69 181.781 626.544 183.538 625.749 185.46C624.211 189.312 624.211 193.608 625.749 197.46M596.749 206.62V190.13C596.622 187.008 597.659 183.95 599.659 181.55C600.566 180.471 601.704 179.61 602.988 179.03C604.272 178.45 605.671 178.167 607.079 178.2C608.325 178.167 609.562 178.411 610.701 178.915C611.841 179.418 612.855 180.168 613.669 181.11C615.455 183.21 616.38 185.907 616.259 188.66V206.6H618.819V189.15C618.819 185.003 617.759 181.723 615.639 179.31C614.571 178.109 613.249 177.16 611.768 176.534C610.287 175.908 608.686 175.62 607.079 175.69C605.004 175.668 602.961 176.211 601.169 177.26C599.341 178.343 597.82 179.875 596.749 181.71V161.79H594.189V206.6L596.749 206.62Z" fill="white"/>
<path d="M419.902 226.822L417.319 227.553C417.156 227.123 416.916 226.704 416.599 226.298C416.291 225.884 415.868 225.542 415.332 225.274C414.796 225.006 414.109 224.872 413.272 224.872C412.127 224.872 411.172 225.136 410.408 225.664C409.653 226.184 409.275 226.846 409.275 227.651C409.275 228.366 409.535 228.931 410.055 229.345C410.575 229.759 411.387 230.105 412.492 230.381L415.271 231.063C416.945 231.47 418.192 232.091 419.013 232.928C419.833 233.757 420.244 234.825 420.244 236.133C420.244 237.206 419.935 238.165 419.317 239.01C418.708 239.855 417.855 240.521 416.758 241.008C415.661 241.496 414.385 241.74 412.931 241.74C411.022 241.74 409.441 241.325 408.19 240.496C406.939 239.668 406.147 238.457 405.814 236.865L408.544 236.182C408.804 237.19 409.295 237.945 410.018 238.449C410.749 238.953 411.704 239.205 412.882 239.205C414.223 239.205 415.287 238.92 416.075 238.351C416.872 237.775 417.27 237.084 417.27 236.28C417.27 235.63 417.042 235.085 416.587 234.646C416.132 234.2 415.434 233.866 414.491 233.647L411.371 232.916C409.657 232.51 408.397 231.88 407.593 231.027C406.797 230.166 406.399 229.089 406.399 227.797C406.399 226.741 406.695 225.806 407.288 224.994C407.889 224.181 408.706 223.544 409.738 223.081C410.778 222.617 411.956 222.386 413.272 222.386C415.125 222.386 416.579 222.792 417.635 223.605C418.7 224.417 419.455 225.49 419.902 226.822ZM424.573 241.35V222.63H427.449V241.35H424.573ZM426.036 219.51C425.475 219.51 424.992 219.319 424.585 218.937C424.187 218.555 423.988 218.096 423.988 217.56C423.988 217.023 424.187 216.564 424.585 216.182C424.992 215.801 425.475 215.61 426.036 215.61C426.596 215.61 427.076 215.801 427.474 216.182C427.88 216.564 428.083 217.023 428.083 217.56C428.083 218.096 427.88 218.555 427.474 218.937C427.076 219.319 426.596 219.51 426.036 219.51ZM435.594 230.088V241.35H432.717V222.63H435.496V225.555H435.74C436.179 224.604 436.845 223.84 437.739 223.263C438.632 222.678 439.786 222.386 441.2 222.386C442.467 222.386 443.576 222.646 444.527 223.166C445.478 223.678 446.217 224.458 446.745 225.506C447.273 226.546 447.537 227.862 447.537 229.455V241.35H444.661V229.65C444.661 228.179 444.279 227.033 443.516 226.213C442.752 225.384 441.704 224.97 440.371 224.97C439.453 224.97 438.632 225.169 437.909 225.567C437.194 225.965 436.63 226.546 436.215 227.31C435.801 228.073 435.594 229 435.594 230.088ZM460.398 241.74C458.643 241.74 457.132 241.325 455.865 240.496C454.597 239.668 453.622 238.526 452.94 237.072C452.257 235.617 451.916 233.956 451.916 232.087C451.916 230.186 452.265 228.508 452.964 227.054C453.671 225.591 454.654 224.45 455.913 223.629C457.181 222.8 458.66 222.386 460.35 222.386C461.666 222.386 462.852 222.63 463.908 223.117C464.965 223.605 465.83 224.287 466.504 225.165C467.179 226.042 467.597 227.066 467.76 228.236H464.883C464.664 227.383 464.176 226.627 463.421 225.969C462.673 225.303 461.666 224.97 460.398 224.97C459.277 224.97 458.294 225.262 457.449 225.847C456.612 226.424 455.958 227.241 455.487 228.297C455.024 229.345 454.792 230.576 454.792 231.99C454.792 233.436 455.02 234.695 455.475 235.768C455.938 236.84 456.588 237.673 457.425 238.266C458.27 238.859 459.261 239.156 460.398 239.156C461.146 239.156 461.824 239.026 462.434 238.766C463.043 238.506 463.559 238.132 463.981 237.645C464.404 237.157 464.705 236.572 464.883 235.89H467.76C467.597 236.995 467.195 237.99 466.553 238.876C465.919 239.753 465.078 240.452 464.03 240.972C462.99 241.484 461.78 241.74 460.398 241.74ZM479.813 241.74C478.009 241.74 476.453 241.341 475.145 240.545C473.845 239.741 472.842 238.62 472.135 237.181C471.436 235.735 471.087 234.053 471.087 232.136C471.087 230.218 471.436 228.528 472.135 227.066C472.842 225.595 473.825 224.45 475.084 223.629C476.352 222.8 477.83 222.386 479.52 222.386C480.495 222.386 481.458 222.548 482.409 222.873C483.36 223.198 484.225 223.726 485.005 224.458C485.785 225.181 486.406 226.14 486.87 227.334C487.333 228.528 487.564 229.999 487.564 231.746V232.965H473.134V230.478H484.639C484.639 229.422 484.428 228.48 484.005 227.651C483.591 226.822 482.998 226.168 482.226 225.689C481.462 225.209 480.56 224.97 479.52 224.97C478.375 224.97 477.384 225.254 476.547 225.823C475.718 226.383 475.08 227.115 474.633 228.016C474.186 228.918 473.963 229.885 473.963 230.917V232.575C473.963 233.988 474.207 235.187 474.694 236.17C475.19 237.145 475.876 237.888 476.754 238.4C477.631 238.904 478.651 239.156 479.813 239.156C480.569 239.156 481.251 239.05 481.86 238.839C482.478 238.62 483.01 238.295 483.457 237.864C483.904 237.425 484.249 236.881 484.493 236.231L487.272 237.011C486.979 237.953 486.488 238.782 485.797 239.497C485.106 240.204 484.253 240.756 483.238 241.155C482.222 241.545 481.08 241.74 479.813 241.74ZM510.318 216.39V241.35H507.296V219.558H507.15L501.056 223.605V220.533L507.296 216.39H510.318ZM525.443 216.048C526.467 216.056 527.49 216.251 528.514 216.633C529.538 217.015 530.472 217.649 531.317 218.535C532.162 219.412 532.841 220.611 533.353 222.13C533.865 223.649 534.12 225.555 534.12 227.846C534.12 230.064 533.909 232.034 533.487 233.757C533.072 235.471 532.471 236.917 531.683 238.096C530.903 239.274 529.952 240.167 528.831 240.777C527.718 241.386 526.459 241.691 525.053 241.691C523.655 241.691 522.408 241.415 521.311 240.862C520.223 240.301 519.329 239.526 518.63 238.534C517.94 237.535 517.497 236.377 517.302 235.061H520.275C520.544 236.206 521.076 237.153 521.872 237.901C522.676 238.64 523.737 239.01 525.053 239.01C526.979 239.01 528.498 238.169 529.611 236.487C530.732 234.805 531.293 232.428 531.293 229.357H531.098C530.643 230.04 530.103 230.629 529.477 231.124C528.851 231.62 528.157 232.002 527.393 232.27C526.629 232.538 525.817 232.672 524.955 232.672C523.525 232.672 522.213 232.319 521.019 231.612C519.833 230.897 518.882 229.918 518.167 228.675C517.46 227.423 517.107 225.993 517.107 224.385C517.107 222.857 517.448 221.46 518.13 220.192C518.821 218.916 519.788 217.901 521.031 217.145C522.282 216.39 523.753 216.024 525.443 216.048ZM525.443 218.73C524.419 218.73 523.497 218.986 522.676 219.497C521.864 220.001 521.218 220.684 520.739 221.545C520.267 222.398 520.032 223.345 520.032 224.385C520.032 225.425 520.259 226.371 520.714 227.224C521.177 228.069 521.807 228.744 522.603 229.247C523.408 229.743 524.322 229.991 525.345 229.991C526.117 229.991 526.836 229.841 527.503 229.54C528.169 229.231 528.75 228.813 529.245 228.285C529.749 227.748 530.143 227.143 530.428 226.469C530.712 225.786 530.854 225.075 530.854 224.336C530.854 223.361 530.619 222.447 530.147 221.594C529.684 220.741 529.042 220.05 528.222 219.522C527.409 218.994 526.483 218.73 525.443 218.73ZM546.859 216.048C547.883 216.056 548.907 216.251 549.931 216.633C550.954 217.015 551.889 217.649 552.734 218.535C553.579 219.412 554.257 220.611 554.769 222.13C555.281 223.649 555.537 225.555 555.537 227.846C555.537 230.064 555.326 232.034 554.903 233.757C554.489 235.471 553.888 236.917 553.099 238.096C552.319 239.274 551.369 240.167 550.248 240.777C549.134 241.386 547.875 241.691 546.469 241.691C545.072 241.691 543.825 241.415 542.728 240.862C541.639 240.301 540.745 239.526 540.047 238.534C539.356 237.535 538.913 236.377 538.718 235.061H541.692C541.96 236.206 542.492 237.153 543.289 237.901C544.093 238.64 545.153 239.01 546.469 239.01C548.395 239.01 549.914 238.169 551.028 236.487C552.149 234.805 552.709 232.428 552.709 229.357H552.514C552.059 230.04 551.519 230.629 550.894 231.124C550.268 231.62 549.573 232.002 548.809 232.27C548.046 232.538 547.233 232.672 546.372 232.672C544.942 232.672 543.63 232.319 542.435 231.612C541.249 230.897 540.299 229.918 539.584 228.675C538.877 227.423 538.523 225.993 538.523 224.385C538.523 222.857 538.864 221.46 539.547 220.192C540.238 218.916 541.204 217.901 542.448 217.145C543.699 216.39 545.169 216.024 546.859 216.048ZM546.859 218.73C545.836 218.73 544.914 218.986 544.093 219.497C543.28 220.001 542.634 220.684 542.155 221.545C541.684 222.398 541.448 223.345 541.448 224.385C541.448 225.425 541.676 226.371 542.131 227.224C542.594 228.069 543.224 228.744 544.02 229.247C544.824 229.743 545.738 229.991 546.762 229.991C547.534 229.991 548.253 229.841 548.919 229.54C549.585 229.231 550.166 228.813 550.662 228.285C551.166 227.748 551.56 227.143 551.844 226.469C552.129 225.786 552.271 225.075 552.271 224.336C552.271 223.361 552.035 222.447 551.564 221.594C551.101 220.741 550.459 220.05 549.638 219.522C548.826 218.994 547.899 218.73 546.859 218.73ZM568.13 241.691C566.7 241.691 565.412 241.406 564.266 240.838C563.121 240.269 562.203 239.489 561.512 238.498C560.821 237.506 560.443 236.377 560.378 235.11H563.303C563.417 236.239 563.929 237.173 564.839 237.913C565.757 238.644 566.854 239.01 568.13 239.01C569.153 239.01 570.063 238.77 570.86 238.291C571.664 237.811 572.294 237.153 572.749 236.316C573.212 235.471 573.443 234.516 573.443 233.452C573.443 232.363 573.204 231.392 572.724 230.539C572.253 229.678 571.603 229 570.774 228.504C569.946 228.008 568.999 227.756 567.935 227.748C567.171 227.74 566.387 227.858 565.583 228.102C564.778 228.337 564.116 228.642 563.596 229.016L560.768 228.675L562.28 216.39H575.247V219.071H564.815L563.937 226.432H564.083C564.595 226.026 565.237 225.689 566.009 225.421C566.781 225.152 567.585 225.018 568.422 225.018C569.95 225.018 571.311 225.384 572.505 226.115C573.708 226.838 574.65 227.83 575.333 229.089C576.023 230.348 576.368 231.786 576.368 233.403C576.368 234.996 576.011 236.418 575.296 237.669C574.589 238.912 573.614 239.895 572.371 240.618C571.128 241.333 569.714 241.691 568.13 241.691Z" fill="white"/>
</g>
<defs>
<clipPath id="clip0_2113_1108">
<rect width="797" height="247" fill="white"/>
</clipPath>
</defs>
</svg>
