<?xml version="1.0" encoding="utf-8"?>
<!-- Generator: Adobe Illustrator 25.0.0, SVG Export Plug-In . SVG Version: 6.00 Build 0)  -->
<svg version="1.1" id="Layer_1" xmlns="http://www.w3.org/2000/svg" xmlns:xlink="http://www.w3.org/1999/xlink" x="0px" y="0px"
	 viewBox="0 0 168 137" style="enable-background:new 0 0 168 137;" xml:space="preserve">
<style type="text/css">
	.st0{fill:#DE4A26;}
</style>
<path class="st0" d="M164.67,130.34c-0.75-0.05-9.06-1.41-9.06-1.41h-5.91l-2.82-0.31c-14.53-2.69-35.57-7.35-49.8-13.83
	c-2.43-1.11-5-2.34-7.64-3.63c-0.36-1.34-0.7-2.31-0.7-2.31l-0.49-16.3c0,0-0.99-1.23-0.99-5.19c0-3.95,1.24-5.68,2.22-6.17
	c0.99-0.49,1.24-2.96,1.24-2.96s2.47,2.47,4.44,2.47c0.53,0,1.86,1.79,3.52,4.42c-3.37,3.32-6.13,6.34-6.48,7.68
	c-0.99,3.71,0.74,3.96,7.91,3.96c0.69,0,1.29-0.07,1.83-0.17c-0.11,1.94-0.19,4.07-0.19,5.9c-0.01,1.76,0.09,3.28,0.26,4.01
	l0.05,0.18c0.63-0.19,2.37-1.13,4.02-2.51c0.72-0.58,1.46-1.25,2.16-1.96c1.16,2.27,1.94,3.88,2,4.18c0.25,1.24,0.25,6.92,0.99,8.4
	c0.74,1.49,3.46-1.98,1.98-6.18c-0.46-1.31-1.89-4.34-3.64-7.88c0.7-0.86,1.3-1.75,1.76-2.66c2.48-4.85,5.4-11.58,8.6-13.08
	c1.91-0.9,3.03-1.64,3.1-4.98c0-1.28-0.2-2.93-0.67-5.05c-1.75-7.87-3.43-18.49-14.91-20.63c-11.86-2.23-21.87-2.06-31.96-3.45
	l-0.1-0.02l-0.09-0.04l-1.32-0.67c-0.88-0.24-13.89-3.83-17.63-5.18c-3.27-1.2-8.72-2.41-10.02-2.69c-0.33,0.28-1.03,0.91-0.96,1.35
	c-0.01,0.29,0.24,0.91,2.05,1.57l0.19,0.07l0.11,0.16c0.05,0.09,0.43,0.7,0.43,1.87c0,0.8-0.18,1.86-0.71,3.2
	c-0.89,2.31-1.88,3.92-4.25,3.88c-0.76,0-1.63-0.14-2.7-0.4c-2.17-0.55-6.5-2.34-10.45-4.69c-3.92-2.38-7.52-5.18-7.99-8.27
	c-0.34-2.67-0.94-3.85-0.96-5.08c0.01-1.26,0.79-2.11,2.58-3.44c3.88-2.89,25.72-12.87,51.78-18.44
	c20.19-4.31,47.45-8.75,64.33-10.25h-1.73c-13.06,0-32.87,1.05-53.36,5.56c-40.73,8.95-61.9,18.04-65.43,21.3
	c-2,1.82-5.14,4.83-5.14,9.43c0,4.14,2.56,9.83,11.37,17.34l3.28,3L28,60.82c0,0.02-1.97,1.08-3.94,2.9
	c-1.99,1.83-3.88,4.35-3.87,7.11c0.01,0.83,0.18,1.71,0.57,2.62c-1.18,0.2-2.07,0.32-2.42,0.32c-1.73,0-1.73-1.72-3.46,0.49
	c-1.73,2.23-4.47,8.89-5.43,9.64c-0.96,0.74-2.22,1.48-4.45,4.94c-2.22,3.46-5.18,14.08,0.74,17.29c0,0-0.46-4.45,0.5-8.64
	c0.96-4.2,1.24-6.67,2.72-7.66c1.48-0.99,5.68-8.4,6.42-10.12c0.74-1.73,3.46-3.71,5.93-3.71h1.14c0.62,0.7,1.37,1.41,2.3,2.14
	c0.16,0.12,0.35,0.26,0.52,0.39c-0.51,1.33-1.15,3-1.73,4.63c-1.24,3.46-3.71,8.65-3.46,10.63c0.25,1.97,2.48,8.64,4.44,10.12
	c1.98,1.49,2.72,1.49,2.72,1.49s-2.72-5.93-2.96-8.15c-0.24-2.23-0.24-3.46-0.24-5.44s1.48-6.42,2.47-8.4
	c0.41-0.82,1-1.75,1.81-2.66c0.86,0.6,1.78,1.23,2.76,1.89c-0.5,0.59-0.8,1.12-0.86,1.52c-0.17,1.15,1.08,0.66,2.72-0.29
	c0.59,0.39,1.19,0.78,1.81,1.18c-1.25,1.29-2.14,2.62-2.25,3.8c-0.22,2.28,0,3.7,0,3.7s-0.06-2.72,2.41-4.44
	c0.71-0.5,1.33-1.11,1.9-1.74c1.17,0.75,2.39,1.51,3.63,2.28c-1.73,2.61-2.82,5.15-2.82,5.15s-3.76,7.41-4.45,9.14
	c-0.67,1.73-2.96,8.89-2.96,10.25c0,1.37,2.22,8.03,3.95,9.02c1.72,0.99,0.74-4.2,0.74-4.2l-1-2.96c0,0,1.98-9.14,3.96-13.1
	c1.67-3.33,5.08-9.32,6.11-11.13c1.02,0.62,2.05,1.24,3.09,1.86c-1.51,3.28-3.27,7.3-3.27,8.28c0,1.73-3.21,15.56-3.21,16.55
	s0.49,10.13,4.94,12.11c4.44,1.97-0.99-4.45-0.99-7.41c0-2.96,0.24-9.88,1.98-13.84c1.73-3.95,2.96-4.94,2.96-7.16
	s0.99-5.19,1.97-5.93c3.78,2.22,7.61,4.42,11.31,6.5c-0.03,7.26-0.02,17.48,0.3,18.45c0.49,1.49,7.41,6.92,7.41,6.92
	s-3.21-5.93-3.71-8.15c-0.33-1.47-0.76-9.98-1.02-15.57c8.72,4.82,16.37,8.75,20.31,10.3c0.99,2.7,2.57,5.16,4.92,6.5
	c0,0-0.37-1.47-0.63-3.78c0.01,0.01,0.02,0.02,0.03,0.02c8.22,5.5,47.8,13.62,47.8,13.62l0.02-0.08c3.25,0.72,8.73,1.59,13.13,2.04
	c6.51,0.65,12.67-0.7,13.87-1.05C166.38,130.63,165.43,130.38,164.67,130.34z M115.71,82.95c-0.01,0.66-0.12,1.43-0.96,1.68
	c-0.58,0.1-3.95,1.46-7.02,2.94c1.29-2.47,2.92-5.46,3.49-5.89c0.66-0.5,2.67-1.22,3.91-1.64C115.49,81.16,115.7,82.18,115.71,82.95
	z M95.9,72.69c0.62-1.06,0.86-1.85,0.86-1.86l0.11-0.37l0.38-0.06c0.02-0.01,1.7-0.26,3.95-0.26c3.08,0.02,7.25,0.43,9.71,2.85
	c0.16,0.16,0.29,0.33,0.44,0.5c-2.03,1.77-6.56,5.76-10.71,9.73c-0.19-0.36-0.29-0.56-0.29-0.56l-1.98-2.96v-1.98l-1.24-1.49
	l-2.18-2.18C95.32,73.59,95.65,73.12,95.9,72.69z M30.09,71.69c-0.07-0.4-0.13-0.8-0.14-1.18c-0.01-1.08,0.37-2.15,1.33-2.77
	c1.65-1.09,2.68-1.91,4.1-1.93c1.22,0.01,2.41,0.64,4.21,1.94c0.91,0.67,2.43,1.87,4.35,3.27l-1.9,0.04l-7.65-0.24
	C34.39,70.82,32.54,71.2,30.09,71.69z M34.42,79.79c-0.51-0.59-1.05-1.3-1.59-2.1c0.19-0.07,0.37-0.15,0.57-0.22
	c3.95-1.24,9.63-2.96,9.63-2.96l4.99-0.72c0.4,0.26,0.82,0.52,1.24,0.77c-1.11,0.12-3.61,0.53-7.95,1.92
	C38.66,77.35,36.29,78.55,34.42,79.79z M37.78,82.43c-0.45-0.29-0.86-0.57-1.21-0.81c2.51-1.43,5.24-2.4,5.24-2.4
	s3.46-1.49,4.69-1.49c1.02,0,5.98-0.34,7.67-0.45c0.56,0.27,1.13,0.52,1.7,0.77c-1.89,0.26-8.56,1.17-9.62,1.17
	c-1.24,0-4.44,0.49-7.41,2.47C38.48,81.91,38.13,82.16,37.78,82.43z M42.84,85.6c-1.22-0.74-2.32-1.43-3.29-2.04
	c0.52-0.39,1.09-0.71,1.76-0.89c2.72-0.74,4.94-1.73,6.92-1.73h4.94c1.14,0,4.44-1.48,4.44-1.48l1.52-0.18
	c1.37,0.45,2.76,0.8,4.16,1.04c-0.24,0.1-0.89,0.28-2.47,0.62c-3.46,0.74-6.67,1.24-7.91,1.24c-1.23,0-4.44-0.74-8.4,1.97
	C43.93,84.55,43.38,85.05,42.84,85.6z M49.21,88.11c0,0-0.19,0.38-0.49,1c-0.61-0.36-1.22-0.71-1.8-1.06l0.8-0.68
	c0,0,12.85-2.47,14.83-2.96c1.97-0.49,2.47-1.49,2.96-3.46l0.14-0.35c0.45,0.03,0.89,0.07,1.34,0.07c0.8,0,1.6-0.07,2.4-0.17
	c-0.16,0.82-0.61,1.95-1.9,2.66c-2.22,1.24-10.75,4.7-12.54,4.7C53.17,87.86,49.21,88.11,49.21,88.11z M62.8,94.53
	c0,0.23-0.01,1.18-0.02,2.6c-2.58-1.43-5.07-2.85-7.45-4.2c2.11-1.22,4.26-2.44,4.26-2.44s6.92-3.62,10.38-3.86
	c0,0,3.46-0.24,4.44-1.98c0.83-1.45,1.48-4.25,1.67-5.15c0.59-0.09,1.16-0.17,1.72-0.25c0.12,1.79,0.19,4.34-0.37,4.66
	c-0.87,0.49-11.43,6.3-12.91,7.22C63.05,92.06,62.8,93.3,62.8,94.53z M65.52,98.64l-0.01-0.16l0.74-2.23c0,0,8.89-6.92,10.74-7.9
	c1.86-0.99,3.83,0.49,3.09,5.92c-0.74,5.44-1.23,5.19-1.23,5.19v1.24c0,0,3.7-2.47,3.95-3.71c0.24-1.24-0.25-5.87-0.25-5.87
	l0.49-1.55c0,0,2.23,10.38,1.73,14.82c-0.14,1.25-0.11,2.82,0.1,4.48C78.5,105.67,71.83,102.12,65.52,98.64z"/>
</svg>
